<svg xmlns="http://www.w3.org/2000/svg" xmlns:xlink="http://www.w3.org/1999/xlink" width="610" height="414" viewBox="0 0 610 414">
  <defs>
    <clipPath id="clip-path">
      <rect id="Rectángulo_403335" data-name="Rectángulo 403335" width="440" height="336.425" fill="none"/>
    </clipPath>
  </defs>
  <g id="Grupo_1106330" data-name="Grupo 1106330" transform="translate(-810.051 -6035.96)">
    <g id="Grupo_1106329" data-name="Grupo 1106329">
      <rect id="Rectángulo_403318" data-name="Rectángulo 403318" width="610" height="414" transform="translate(810.051 6035.96)" fill="#8efebf" opacity="0.2"/>
      <g id="Grupo_1103623" data-name="Grupo 1103623" transform="translate(895 6060.155)">
        <g id="Grupo_1103622" data-name="Grupo 1103622" clip-path="url(#clip-path)">
          <path id="Trazado_913618" data-name="Trazado 913618" d="M341.2,178.736l4.293-5.005L383.937,183.9c-1.983,14.348-12.082,28.958-33.048,31.573-30.73,3.832-87.5,1.816-97.485,4.5-1.9,39.234-36.629,54.986-36.065,85.05l-.118,6.265-29.992-2.534-3.283-4.266a85.947,85.947,0,0,1,8.769-1.131c22.323-2.578,34.6-79.089,39.508-97.64,3.393-12.808,11.085-11.4,21.553-13.677,27.531-5.978,59.886-11.452,87.419-13.3" transform="translate(16.433 15.52)" fill="#ddd3b8" fill-rule="evenodd"/>
          <path id="Trazado_913619" data-name="Trazado 913619" d="M219.533,296.87c1.248,5.376,1.292,7.31-.968,11.515l-53.076-11.51c-1.265-3.977,10.716-3.449,22.182-3.94,8.842,3.229,23.036,4.987,31.862,3.935" transform="translate(14.776 26.169)" fill="#6c7c68" fill-rule="evenodd"/>
          <path id="Trazado_913620" data-name="Trazado 913620" d="M219.811,305.434a19.487,19.487,0,0,1-1.247,2.726l-53.076-11.51a1.5,1.5,0,0,1,.065-1.192Z" transform="translate(14.776 26.395)" fill="#505c4d" fill-rule="evenodd"/>
          <path id="Trazado_913621" data-name="Trazado 913621" d="M354.673,85.62c-33.07,36.7-29.582,37.7-45.859,46.744-18.293,1.52-46.375,12.89-63.736,8.658a20.438,20.438,0,0,1-4.37-1.357c-3.275-1.45-7.87-3.092-8.772-2.944-4.734.771-8.61.376-12.823.484-2.984.221-5.292,1.117-8.062,1.581-2.127.65-1.934,2.684.279,2.722l10.73,1.358c5.806,1.086,6.308,3.04,9.574,4.825,3.906,1.794,8.88,1.331,13.552,1.134,22.449-.951,47.638,5.435,69.13.313,20.867-12.3,40.332-31.319,57.835-49.947,12.666-13.479-6.013-27.167-17.478-13.57" transform="translate(18.721 7.147)" fill="#e5dabe" fill-rule="evenodd"/>
          <path id="Trazado_913622" data-name="Trazado 913622" d="M121.261,102.571h5.363c.275,0,.5-.342.5-.763V60.021c0-.419-.224-.763-.5-.763h-5.363c-.275,0-.5.343-.5.763v41.788c0,.42.224.763.5.763" transform="translate(10.788 5.294)" fill="#aaafb1" fill-rule="evenodd"/>
          <path id="Trazado_913623" data-name="Trazado 913623" d="M121.369,102.571h3.964c.2,0,.369-.342.369-.763V60.021c0-.419-.167-.763-.369-.763h-3.964c-.2,0-.369.343-.369.763v41.788c0,.42.166.763.369.763" transform="translate(10.81 5.294)" fill="#ced5d6" fill-rule="evenodd"/>
          <path id="Trazado_913624" data-name="Trazado 913624" d="M121.935,102.571h1.471c.075,0,.136-.342.136-.763V60.021c0-.419-.061-.763-.136-.763h-1.471c-.075,0-.137.343-.137.763v41.788c0,.42.062.763.137.763" transform="translate(10.881 5.294)" fill="#e6eeef" fill-rule="evenodd"/>
          <path id="Trazado_913625" data-name="Trazado 913625" d="M126.12,102.571h.024c.275,0,.5-.342.5-.763V60.021c0-.419-.224-.763-.5-.763h-.024Z" transform="translate(11.267 5.294)" fill="#797d7e" fill-rule="evenodd"/>
          <path id="Trazado_913626" data-name="Trazado 913626" d="M127.1,59.822c-.058-.325-.252-.565-.481-.565h-5.364c-.23,0-.424.241-.481.565Z" transform="translate(10.79 5.294)" fill="#b8bebf" fill-rule="evenodd"/>
          <path id="Trazado_913627" data-name="Trazado 913627" d="M125.69,59.822c-.044-.325-.187-.565-.357-.565h-3.975c-.17,0-.315.241-.357.565Z" transform="translate(10.81 5.294)" fill="#dfe6e8" fill-rule="evenodd"/>
          <path id="Trazado_913628" data-name="Trazado 913628" d="M123.536,59.822c-.015-.325-.069-.565-.132-.565h-1.47c-.063,0-.117.241-.132.565Z" transform="translate(10.881 5.294)" fill="#f5fbfd" fill-rule="evenodd"/>
          <path id="Trazado_913629" data-name="Trazado 913629" d="M121.26,99.562h5.363c.275,0,.5-.344.5-.764V92.94l-6.361,2.771V98.8c0,.419.224.764.5.764" transform="translate(10.788 8.303)" fill="#8a8e90" fill-rule="evenodd"/>
          <path id="Trazado_913630" data-name="Trazado 913630" d="M121.369,99.512h3.964c.2,0,.368-.344.368-.764V93.5L121,95.548v3.2c0,.419.166.764.369.764" transform="translate(10.81 8.353)" fill="#b1b7b8" fill-rule="evenodd"/>
          <path id="Trazado_913631" data-name="Trazado 913631" d="M121.935,99.437h1.47c.075,0,.136-.344.136-.764V94.335l-1.743.759v3.58c0,.419.062.764.137.764" transform="translate(10.881 8.427)" fill="#c9d0d1" fill-rule="evenodd"/>
          <path id="Trazado_913632" data-name="Trazado 913632" d="M126.12,99.562h.025c.273,0,.5-.344.5-.764V92.94l-.523.228Z" transform="translate(11.267 8.303)" fill="#575a5a" fill-rule="evenodd"/>
          <path id="Trazado_913633" data-name="Trazado 913633" d="M120.064,150.238h8.013a.87.87,0,0,0,.747-.95V97.251a.87.87,0,0,0-.747-.951h-8.013a.87.87,0,0,0-.747.951v52.038a.87.87,0,0,0,.747.95" transform="translate(10.659 8.603)" fill="#aaafb1" fill-rule="evenodd"/>
          <path id="Trazado_913634" data-name="Trazado 913634" d="M120.226,150.238h5.923c.3,0,.552-.427.552-.95V97.251c0-.524-.248-.951-.552-.951h-5.923c-.3,0-.552.427-.552.951v52.038c0,.523.248.95.552.95" transform="translate(10.691 8.603)" fill="#ced5d6" fill-rule="evenodd"/>
          <path id="Trazado_913635" data-name="Trazado 913635" d="M121.072,150.238h2.2c.112,0,.2-.427.2-.95V97.251c0-.524-.093-.951-.2-.951h-2.2c-.112,0-.2.427-.2.951v52.038c0,.523.092.95.2.95" transform="translate(10.798 8.603)" fill="#e6eeef" fill-rule="evenodd"/>
          <path id="Trazado_913636" data-name="Trazado 913636" d="M127.327,150.238h.035a.869.869,0,0,0,.747-.95V97.251a.869.869,0,0,0-.747-.951h-.035Z" transform="translate(11.375 8.603)" fill="#797d7e" fill-rule="evenodd"/>
          <path id="Trazado_913637" data-name="Trazado 913637" d="M128.8,97a.807.807,0,0,0-.721-.7h-8.012a.8.8,0,0,0-.72.7Z" transform="translate(10.661 8.603)" fill="#b8bebf" fill-rule="evenodd"/>
          <path id="Trazado_913638" data-name="Trazado 913638" d="M126.683,97c-.064-.4-.28-.7-.534-.7h-5.94c-.254,0-.471.3-.535.7Z" transform="translate(10.691 8.603)" fill="#dfe6e8" fill-rule="evenodd"/>
          <path id="Trazado_913639" data-name="Trazado 913639" d="M123.464,97c-.023-.4-.1-.7-.2-.7h-2.2c-.095,0-.174.3-.2.7Z" transform="translate(10.798 8.603)" fill="#f5fbfd" fill-rule="evenodd"/>
          <path id="Trazado_913640" data-name="Trazado 913640" d="M118.75,142.589h21.057l43.945,5.925v1.63h-74.66V149.1Z" transform="translate(9.746 12.738)" fill="#b6bcbd" fill-rule="evenodd"/>
          <rect id="Rectángulo_403319" data-name="Rectángulo 403319" width="74.66" height="0.923" transform="translate(118.838 161.959)" fill="#85898a"/>
          <path id="Trazado_913641" data-name="Trazado 913641" d="M118.72,142.962l-8.358,5.992h5.069Z" transform="translate(9.859 12.772)" fill="#ced5d6" fill-rule="evenodd"/>
          <path id="Trazado_913642" data-name="Trazado 913642" d="M137.178,142.979l1.166,5.6,42.2.278Z" transform="translate(12.255 12.773)" fill="#ced5d6" fill-rule="evenodd"/>
          <path id="Trazado_913643" data-name="Trazado 913643" d="M137.178,142.979l.052.253L170,148.783l10.547.07Z" transform="translate(12.255 12.773)" fill="#e6eeef" fill-rule="evenodd"/>
          <path id="Trazado_913644" data-name="Trazado 913644" d="M136.964,142.8l.855,5.789h-.855Z" transform="translate(12.236 12.757)" fill="#ced5d6" fill-rule="evenodd"/>
          <path id="Trazado_913645" data-name="Trazado 913645" d="M124.744,47.439h13.006V65.246H124.744c-11.753,0-11.754-17.807,0-17.807" transform="translate(10.357 4.238)" fill="#ced5d6" fill-rule="evenodd"/>
          <path id="Trazado_913646" data-name="Trazado 913646" d="M124.743,47.439h13v.478H125.16c-8.656,0-10.936,9.656-6.843,14.746-4.649-4.935-2.511-15.225,6.426-15.225" transform="translate(10.357 4.238)" fill="#e6eeef" fill-rule="evenodd"/>
          <path id="Trazado_913647" data-name="Trazado 913647" d="M137.536,47.439h.179V65.246h-13a8.311,8.311,0,0,1-8.4-6.069,8.3,8.3,0,0,0,8.223,5.531h13.006Z" transform="translate(10.39 4.238)" fill="#9da2a4" fill-rule="evenodd"/>
          <path id="Trazado_913648" data-name="Trazado 913648" d="M124.584,60.683A4.686,4.686,0,1,0,119.9,56a4.695,4.695,0,0,0,4.686,4.686" transform="translate(10.711 4.584)" fill="#9da2a4" fill-rule="evenodd"/>
          <path id="Trazado_913649" data-name="Trazado 913649" d="M124.56,60.361a4.388,4.388,0,1,0-4.388-4.388,4.4,4.4,0,0,0,4.388,4.388" transform="translate(10.736 4.608)" fill="#ced5d6" fill-rule="evenodd"/>
          <path id="Trazado_913650" data-name="Trazado 913650" d="M122.047,59.569a4.387,4.387,0,1,1,5.266-7.011,4.387,4.387,0,0,0-5.266,7.011" transform="translate(10.736 4.608)" fill="#e6eeef" fill-rule="evenodd"/>
          <path id="Trazado_913651" data-name="Trazado 913651" d="M135.16,10.349l-7.154,4.756a1.722,1.722,0,0,0-.572,1.182l7.789,89.2a1.264,1.264,0,0,0,.76.983l7.869,3.443c.329.144.648-.322.62-.646l-8.59-98.388c-.028-.324-.425-.728-.722-.529" transform="translate(11.384 0.92)" fill="#c2c8ca" fill-rule="evenodd"/>
          <path id="Trazado_913652" data-name="Trazado 913652" d="M130.144,22.7l5.441-.475a.322.322,0,0,1,.057.641l-5.442.476a.322.322,0,1,1-.056-.642" transform="translate(11.6 1.985)" fill="#9da2a4" fill-rule="evenodd"/>
          <path id="Trazado_913653" data-name="Trazado 913653" d="M130.144,22.7l5.441-.475a.315.315,0,0,1,.252.089.3.3,0,0,0-.062,0l-5.441.475a.323.323,0,0,0-.293.349.316.316,0,0,0,.1.2.321.321,0,0,1,0-.639" transform="translate(11.6 1.985)" fill="#797d7e" fill-rule="evenodd"/>
          <path id="Trazado_913654" data-name="Trazado 913654" d="M130.261,24.047l5.442-.475a.321.321,0,0,1,.056.641l-5.442.475a.321.321,0,1,1-.056-.641" transform="translate(11.611 2.106)" fill="#9da2a4" fill-rule="evenodd"/>
          <path id="Trazado_913655" data-name="Trazado 913655" d="M130.261,24.047l5.442-.475a.314.314,0,0,1,.251.089.3.3,0,0,0-.062,0l-5.441.475a.323.323,0,0,0-.293.349.316.316,0,0,0,.1.2.321.321,0,0,1,0-.639" transform="translate(11.611 2.106)" fill="#797d7e" fill-rule="evenodd"/>
          <path id="Trazado_913656" data-name="Trazado 913656" d="M130.379,25.394l5.442-.474a.321.321,0,0,1,.056.641l-5.442.476a.323.323,0,0,1-.056-.643" transform="translate(11.621 2.226)" fill="#9da2a4" fill-rule="evenodd"/>
          <path id="Trazado_913657" data-name="Trazado 913657" d="M130.379,25.394l5.442-.474a.316.316,0,0,1,.251.089.3.3,0,0,0-.062,0l-5.441.475a.323.323,0,0,0-.293.349.316.316,0,0,0,.1.2.322.322,0,0,1,0-.641" transform="translate(11.621 2.226)" fill="#797d7e" fill-rule="evenodd"/>
          <path id="Trazado_913658" data-name="Trazado 913658" d="M130.5,26.742l5.442-.476a.322.322,0,0,1,.056.642l-5.441.476a.322.322,0,1,1-.057-.642" transform="translate(11.632 2.346)" fill="#9da2a4" fill-rule="evenodd"/>
          <path id="Trazado_913659" data-name="Trazado 913659" d="M130.5,26.742l5.442-.476a.322.322,0,0,1,.251.09.3.3,0,0,0-.062,0l-5.441.475a.323.323,0,0,0-.293.349.316.316,0,0,0,.1.2.321.321,0,0,1,0-.639" transform="translate(11.632 2.346)" fill="#797d7e" fill-rule="evenodd"/>
          <path id="Trazado_913660" data-name="Trazado 913660" d="M130.614,28.09l5.442-.475a.321.321,0,0,1,.056.641l-5.441.475a.322.322,0,1,1-.057-.641" transform="translate(11.642 2.467)" fill="#9da2a4" fill-rule="evenodd"/>
          <path id="Trazado_913661" data-name="Trazado 913661" d="M130.614,28.09l5.442-.475a.317.317,0,0,1,.251.089.3.3,0,0,0-.062,0l-5.441.475a.323.323,0,0,0-.293.349.316.316,0,0,0,.1.2.321.321,0,0,1,0-.639" transform="translate(11.642 2.467)" fill="#797d7e" fill-rule="evenodd"/>
          <path id="Trazado_913662" data-name="Trazado 913662" d="M130.732,29.437l5.442-.474a.321.321,0,0,1,.056.641l-5.442.475a.322.322,0,0,1-.056-.642" transform="translate(11.653 2.587)" fill="#9da2a4" fill-rule="evenodd"/>
          <path id="Trazado_913663" data-name="Trazado 913663" d="M130.732,29.437l5.442-.474a.316.316,0,0,1,.251.089.3.3,0,0,0-.062,0l-5.441.474a.32.32,0,0,0-.194.552.322.322,0,0,1,0-.642" transform="translate(11.653 2.587)" fill="#797d7e" fill-rule="evenodd"/>
          <path id="Trazado_913664" data-name="Trazado 913664" d="M130.85,30.785l5.441-.475a.322.322,0,0,1,.057.641l-5.442.476a.322.322,0,0,1-.056-.642" transform="translate(11.663 2.708)" fill="#9da2a4" fill-rule="evenodd"/>
          <path id="Trazado_913665" data-name="Trazado 913665" d="M130.85,30.785l5.441-.475a.317.317,0,0,1,.252.089.3.3,0,0,0-.062,0l-5.441.475a.319.319,0,0,0-.195.55.321.321,0,0,1,.005-.639" transform="translate(11.663 2.708)" fill="#797d7e" fill-rule="evenodd"/>
          <path id="Trazado_913666" data-name="Trazado 913666" d="M130.967,32.133l5.441-.475a.322.322,0,0,1,.057.641l-5.442.476a.322.322,0,1,1-.056-.642" transform="translate(11.674 2.828)" fill="#9da2a4" fill-rule="evenodd"/>
          <path id="Trazado_913667" data-name="Trazado 913667" d="M130.967,32.133l5.441-.475a.317.317,0,0,1,.252.089.3.3,0,0,0-.062,0l-5.441.475a.323.323,0,0,0-.293.349.316.316,0,0,0,.1.2.321.321,0,0,1,0-.639" transform="translate(11.674 2.828)" fill="#797d7e" fill-rule="evenodd"/>
          <path id="Trazado_913668" data-name="Trazado 913668" d="M131.085,33.48l5.441-.475a.322.322,0,1,1,.057.642l-5.442.474a.321.321,0,0,1-.056-.641" transform="translate(11.684 2.948)" fill="#9da2a4" fill-rule="evenodd"/>
          <path id="Trazado_913669" data-name="Trazado 913669" d="M131.085,33.48l5.441-.475a.315.315,0,0,1,.252.089.3.3,0,0,0-.062,0l-5.441.475a.32.32,0,0,0-.194.551.322.322,0,0,1,0-.641" transform="translate(11.684 2.948)" fill="#797d7e" fill-rule="evenodd"/>
          <path id="Trazado_913670" data-name="Trazado 913670" d="M131.2,34.828l5.442-.475a.322.322,0,0,1,.056.642l-5.442.475a.322.322,0,0,1-.056-.642" transform="translate(11.695 3.069)" fill="#9da2a4" fill-rule="evenodd"/>
          <path id="Trazado_913671" data-name="Trazado 913671" d="M131.2,34.828l5.442-.475a.314.314,0,0,1,.251.089.3.3,0,0,0-.062,0l-5.441.475a.32.32,0,0,0-.194.551.322.322,0,0,1,0-.641" transform="translate(11.695 3.069)" fill="#797d7e" fill-rule="evenodd"/>
          <path id="Trazado_913672" data-name="Trazado 913672" d="M134.946,77.7l5.441-.475a.321.321,0,1,1,.056.641L135,78.342a.322.322,0,1,1-.056-.642" transform="translate(12.029 6.899)" fill="#9da2a4" fill-rule="evenodd"/>
          <path id="Trazado_913673" data-name="Trazado 913673" d="M134.946,77.7l5.441-.475a.318.318,0,0,1,.252.089.3.3,0,0,0-.062,0l-5.442.475a.322.322,0,0,0-.292.349.315.315,0,0,0,.1.2.322.322,0,0,1,.005-.641" transform="translate(12.029 6.899)" fill="#797d7e" fill-rule="evenodd"/>
          <path id="Trazado_913674" data-name="Trazado 913674" d="M135.064,79.048l5.441-.475a.321.321,0,1,1,.056.641l-5.441.475a.321.321,0,1,1-.056-.641" transform="translate(12.04 7.019)" fill="#9da2a4" fill-rule="evenodd"/>
          <path id="Trazado_913675" data-name="Trazado 913675" d="M135.064,79.048l5.441-.475a.318.318,0,0,1,.252.089.391.391,0,0,0-.062,0l-5.442.476a.322.322,0,0,0-.292.349.315.315,0,0,0,.1.2.321.321,0,0,1,.005-.639" transform="translate(12.04 7.019)" fill="#797d7e" fill-rule="evenodd"/>
          <path id="Trazado_913676" data-name="Trazado 913676" d="M135.182,80.4l5.441-.475a.321.321,0,1,1,.056.641l-5.441.475a.321.321,0,1,1-.056-.641" transform="translate(12.05 7.14)" fill="#9da2a4" fill-rule="evenodd"/>
          <path id="Trazado_913677" data-name="Trazado 913677" d="M135.182,80.4l5.441-.475a.318.318,0,0,1,.252.089.3.3,0,0,0-.062,0l-5.442.475a.322.322,0,0,0-.292.349.309.309,0,0,0,.1.2.321.321,0,0,1,.005-.639" transform="translate(12.05 7.14)" fill="#797d7e" fill-rule="evenodd"/>
          <path id="Trazado_913678" data-name="Trazado 913678" d="M135.3,81.744l5.442-.476a.322.322,0,0,1,.056.642l-5.441.476a.322.322,0,1,1-.057-.642" transform="translate(12.061 7.26)" fill="#9da2a4" fill-rule="evenodd"/>
          <path id="Trazado_913679" data-name="Trazado 913679" d="M135.3,81.744l5.442-.476a.322.322,0,0,1,.251.09.394.394,0,0,0-.062,0l-5.441.476a.323.323,0,0,0-.293.349.316.316,0,0,0,.1.2.321.321,0,0,1,0-.639" transform="translate(12.061 7.26)" fill="#797d7e" fill-rule="evenodd"/>
          <path id="Trazado_913680" data-name="Trazado 913680" d="M135.417,83.091l5.442-.475a.321.321,0,1,1,.056.641l-5.442.475a.321.321,0,1,1-.056-.641" transform="translate(12.071 7.38)" fill="#9da2a4" fill-rule="evenodd"/>
          <path id="Trazado_913681" data-name="Trazado 913681" d="M135.417,83.091l5.442-.475a.316.316,0,0,1,.251.089.3.3,0,0,0-.062,0l-5.441.474a.325.325,0,0,0-.293.35.316.316,0,0,0,.1.2.321.321,0,0,1,0-.639" transform="translate(12.071 7.38)" fill="#797d7e" fill-rule="evenodd"/>
          <path id="Trazado_913682" data-name="Trazado 913682" d="M135.534,84.439l5.442-.475a.321.321,0,0,1,.056.641l-5.441.475a.322.322,0,1,1-.057-.641" transform="translate(12.082 7.501)" fill="#9da2a4" fill-rule="evenodd"/>
          <path id="Trazado_913683" data-name="Trazado 913683" d="M135.534,84.439l5.442-.475a.317.317,0,0,1,.251.089.3.3,0,0,0-.062,0l-5.441.475a.319.319,0,0,0-.194.551.322.322,0,0,1,0-.641" transform="translate(12.082 7.501)" fill="#797d7e" fill-rule="evenodd"/>
          <path id="Trazado_913684" data-name="Trazado 913684" d="M135.652,85.787l5.442-.475a.321.321,0,0,1,.056.641l-5.441.476a.322.322,0,1,1-.057-.642" transform="translate(12.092 7.621)" fill="#9da2a4" fill-rule="evenodd"/>
          <path id="Trazado_913685" data-name="Trazado 913685" d="M135.652,85.787l5.442-.475a.314.314,0,0,1,.251.089.39.39,0,0,0-.062,0l-5.441.476a.323.323,0,0,0-.293.349.318.318,0,0,0,.1.2.321.321,0,0,1,0-.639" transform="translate(12.092 7.621)" fill="#797d7e" fill-rule="evenodd"/>
          <path id="Trazado_913686" data-name="Trazado 913686" d="M135.77,87.134l5.442-.475a.321.321,0,0,1,.056.641l-5.441.476a.322.322,0,1,1-.057-.642" transform="translate(12.103 7.742)" fill="#9da2a4" fill-rule="evenodd"/>
          <path id="Trazado_913687" data-name="Trazado 913687" d="M135.77,87.134l5.442-.475a.316.316,0,0,1,.251.089.3.3,0,0,0-.062,0l-5.441.475a.323.323,0,0,0-.293.349.316.316,0,0,0,.1.2.321.321,0,0,1,0-.639" transform="translate(12.103 7.742)" fill="#797d7e" fill-rule="evenodd"/>
          <path id="Trazado_913688" data-name="Trazado 913688" d="M135.888,88.482l5.441-.475a.322.322,0,0,1,.057.642l-5.442.474a.321.321,0,1,1-.056-.641" transform="translate(12.113 7.862)" fill="#9da2a4" fill-rule="evenodd"/>
          <path id="Trazado_913689" data-name="Trazado 913689" d="M135.888,88.482l5.441-.475a.318.318,0,0,1,.252.089.3.3,0,0,0-.062,0l-5.442.475a.322.322,0,0,0-.292.349.315.315,0,0,0,.1.2.322.322,0,0,1,.005-.641" transform="translate(12.113 7.862)" fill="#797d7e" fill-rule="evenodd"/>
          <path id="Trazado_913690" data-name="Trazado 913690" d="M136.005,89.83l5.441-.475A.321.321,0,1,1,141.5,90l-5.441.476a.322.322,0,1,1-.056-.642" transform="translate(12.124 7.982)" fill="#9da2a4" fill-rule="evenodd"/>
          <path id="Trazado_913691" data-name="Trazado 913691" d="M136.005,89.83l5.441-.475a.319.319,0,0,1,.252.089.3.3,0,0,0-.062,0l-5.442.475a.322.322,0,0,0-.292.349.315.315,0,0,0,.1.2.322.322,0,0,1,.005-.641" transform="translate(12.124 7.982)" fill="#797d7e" fill-rule="evenodd"/>
          <path id="Trazado_913692" data-name="Trazado 913692" d="M135.16,10.349l-7.153,4.756a1.719,1.719,0,0,0-.573,1.182l7.788,89.2a1.262,1.262,0,0,0,.763.981l7.868,3.444a.322.322,0,0,0,.1.025l-6.921-3.028a1.265,1.265,0,0,1-.761-.984l-7.788-89.2a1.722,1.722,0,0,1,.572-1.181L135.892,11l-.01-.121c-.028-.324-.425-.728-.722-.529" transform="translate(11.384 0.92)" fill="#e6eeef" fill-rule="evenodd"/>
          <path id="Trazado_913693" data-name="Trazado 913693" d="M133.276.68,141.032,0a.649.649,0,0,1,.7.587l10.754,123.171a.647.647,0,0,1-.587.7l-7.755.678a.647.647,0,0,1-.7-.587L132.69,1.379a.646.646,0,0,1,.586-.7" transform="translate(11.854 0)" fill="#ced5d6" fill-rule="evenodd"/>
          <path id="Trazado_913694" data-name="Trazado 913694" d="M151.255,124.46l-7.755.678a.648.648,0,0,1-.7-.587l-.024-.273,7.254-.633a.648.648,0,0,0,.587-.7L139.887.047l.5-.045a.649.649,0,0,1,.7.587l10.754,123.171a.647.647,0,0,1-.587.7" transform="translate(12.497 0)" fill="#b6bcbd" fill-rule="evenodd"/>
          <path id="Trazado_913695" data-name="Trazado 913695" d="M150.25,114.422l-.351.031v-.376Zm-.351-.658.687.609a.65.65,0,0,0,.431-.6L149.9,113.2Zm0-.881v-.3l1.05.365.04.456Zm0,1.57-.18.015-.583-.871.068-.007a.606.606,0,0,0,.167-.036l.528.523Zm0-1.874v.3l-.114-.054-.025-.3Zm0,.62-.132-.068a.65.65,0,0,1-.219.322l.351.31Z" transform="translate(13.323 10.053)" fill="#919697" fill-rule="evenodd"/>
          <path id="Trazado_913696" data-name="Trazado 913696" d="M133.276.68,141.032,0a.64.64,0,0,1,.447.131l-.869.83L134.5,1.5a.646.646,0,0,0-.586.7l10.65,121.977-.847.849a.644.644,0,0,1-.273-.471L132.69,1.379a.646.646,0,0,1,.586-.7" transform="translate(11.854 0)" fill="#e6eeef" fill-rule="evenodd"/>
          <path id="Trazado_913697" data-name="Trazado 913697" d="M133.807.582l.181-.015.582.873-.068.005a.649.649,0,0,0-.167.036l-.528-.522Zm0,1.875v-.3l.113.053.026.3Zm0-.62.132.068a.648.648,0,0,1,.219-.324l-.351-.31ZM133.456.613l.351-.031V.959Zm.351.658-.687-.609a.65.65,0,0,0-.431.6l1.119.58Zm0,.882v.3l-1.05-.366-.04-.456Z" transform="translate(11.854 0.051)" fill="#f5f8f9" fill-rule="evenodd"/>
          <path id="Trazado_913698" data-name="Trazado 913698" d="M190.178,144.753l-1.054,5.271h1.934l6.97-5.1Z" transform="translate(16.895 12.932)" fill="#85898a" fill-rule="evenodd"/>
          <path id="Trazado_913699" data-name="Trazado 913699" d="M211.6,140.6l4.049.362a.438.438,0,0,1,.362.434l.362,3.093c.025.217-.215.382-.432.362l-5.266-.491c-.217-.02-.423-.221-.362-.431l.856-2.965a.431.431,0,0,1,.431-.362" transform="translate(18.788 12.56)" fill="#b6bcbd" fill-rule="evenodd"/>
          <path id="Trazado_913700" data-name="Trazado 913700" d="M211.708,140.724l3.462.309c.187.017.286.2.306.415l.279,2.985a.348.348,0,0,1-.375.354l-4.5-.422a.35.35,0,0,1-.306-.415l.761-2.874c.053-.2.187-.37.375-.353" transform="translate(18.811 12.572)" fill="#ced5d6" fill-rule="evenodd"/>
          <path id="Trazado_913701" data-name="Trazado 913701" d="M211.706,140.724l3.466.309a.314.314,0,0,1,.257.217.286.286,0,0,0-.1-.028l-3.465-.309c-.185-.017-.319.15-.373.354l-.761,2.873a.324.324,0,0,0,.01.18.342.342,0,0,1-.168-.368l.761-2.874c.053-.2.187-.37.373-.353" transform="translate(18.811 12.572)" fill="#e6eeef" fill-rule="evenodd"/>
          <path id="Trazado_913702" data-name="Trazado 913702" d="M217.513,141.125l4.049.363a.436.436,0,0,1,.362.431l.362,3.094c.025.217-.215.382-.432.362l-5.266-.49c-.217-.021-.42-.222-.362-.432l.856-2.965a.431.431,0,0,1,.431-.362" transform="translate(19.316 12.607)" fill="#b6bcbd" fill-rule="evenodd"/>
          <path id="Trazado_913703" data-name="Trazado 913703" d="M217.618,141.252l3.464.309c.185.017.284.206.3.415l.279,2.985a.345.345,0,0,1-.373.354l-4.5-.422a.346.346,0,0,1-.3-.414l.759-2.874c.056-.2.187-.371.375-.354" transform="translate(19.339 12.619)" fill="#ced5d6" fill-rule="evenodd"/>
          <path id="Trazado_913704" data-name="Trazado 913704" d="M217.618,141.252l3.464.309a.313.313,0,0,1,.257.217.308.308,0,0,0-.1-.028l-3.463-.309c-.187-.016-.319.15-.375.354l-.759,2.873a.288.288,0,0,0,.01.18.339.339,0,0,1-.17-.368l.761-2.873c.056-.2.187-.371.375-.354" transform="translate(19.339 12.619)" fill="#e6eeef" fill-rule="evenodd"/>
          <path id="Trazado_913705" data-name="Trazado 913705" d="M223.423,141.654l4.049.362a.434.434,0,0,1,.362.432l.364,3.093c.025.217-.217.382-.435.362l-5.266-.49a.38.38,0,0,1-.362-.432l.856-2.965a.43.43,0,0,1,.431-.361" transform="translate(19.844 12.655)" fill="#b6bcbd" fill-rule="evenodd"/>
          <path id="Trazado_913706" data-name="Trazado 913706" d="M223.529,141.78l3.464.309c.186.017.284.206.3.415l.281,2.985a.347.347,0,0,1-.375.354l-4.5-.422a.346.346,0,0,1-.3-.414l.761-2.874c.053-.2.185-.37.373-.354" transform="translate(19.867 12.666)" fill="#ced5d6" fill-rule="evenodd"/>
          <path id="Trazado_913707" data-name="Trazado 913707" d="M223.529,141.78l3.464.309a.312.312,0,0,1,.257.218.262.262,0,0,0-.1-.028l-3.464-.31c-.186-.016-.319.15-.374.354l-.759,2.873a.288.288,0,0,0,.01.18.334.334,0,0,1-.168-.368l.759-2.873c.056-.2.187-.37.375-.354" transform="translate(19.867 12.666)" fill="#e6eeef" fill-rule="evenodd"/>
          <path id="Trazado_913708" data-name="Trazado 913708" d="M229.336,142.183l4.049.362a.437.437,0,0,1,.362.432l.362,3.094c.024.217-.218.381-.432.361l-5.266-.49c-.218-.02-.423-.221-.362-.432l.853-2.964a.433.433,0,0,1,.435-.362" transform="translate(20.372 12.702)" fill="#b6bcbd" fill-rule="evenodd"/>
          <path id="Trazado_913709" data-name="Trazado 913709" d="M229.441,142.31l3.462.309c.187.016.286.2.306.414l.279,2.986a.347.347,0,0,1-.375.353l-4.5-.42a.35.35,0,0,1-.306-.415l.761-2.874c.053-.2.187-.37.375-.353" transform="translate(20.395 12.713)" fill="#ced5d6" fill-rule="evenodd"/>
          <path id="Trazado_913710" data-name="Trazado 913710" d="M229.439,142.309l3.464.31a.312.312,0,0,1,.259.217.286.286,0,0,0-.1-.028L229.6,142.5c-.185-.017-.319.15-.373.353l-.761,2.874a.319.319,0,0,0,.01.179.337.337,0,0,1-.168-.368l.761-2.873c.053-.2.187-.37.373-.354" transform="translate(20.395 12.713)" fill="#e6eeef" fill-rule="evenodd"/>
          <path id="Trazado_913711" data-name="Trazado 913711" d="M205.691,140.068l4.051.362a.44.44,0,0,1,.362.434l.362,3.093c.025.217-.217.382-.432.361l-5.266-.49c-.217-.02-.423-.221-.363-.431l.855-2.966a.432.432,0,0,1,.431-.361" transform="translate(18.26 12.513)" fill="#b6bcbd" fill-rule="evenodd"/>
          <path id="Trazado_913712" data-name="Trazado 913712" d="M205.8,140.2l3.464.309c.187.016.285.2.306.414l.279,2.986a.347.347,0,0,1-.375.353l-4.5-.422a.347.347,0,0,1-.3-.414l.76-2.874c.053-.2.187-.37.373-.353" transform="translate(18.283 12.524)" fill="#ced5d6" fill-rule="evenodd"/>
          <path id="Trazado_913713" data-name="Trazado 913713" d="M205.8,140.2l3.464.309a.309.309,0,0,1,.257.217.263.263,0,0,0-.1-.028l-3.463-.309c-.185-.017-.319.15-.373.353l-.763,2.874a.285.285,0,0,0,.012.179.336.336,0,0,1-.169-.367l.761-2.874c.053-.2.185-.37.373-.353" transform="translate(18.283 12.524)" fill="#e6eeef" fill-rule="evenodd"/>
          <path id="Trazado_913714" data-name="Trazado 913714" d="M192.266,138.867l4.049.363a.435.435,0,0,1,.362.431l.362,3.094c.026.217-.216.382-.432.362l-5.266-.49c-.216-.021-.422-.222-.362-.432l.855-2.965a.433.433,0,0,1,.432-.362" transform="translate(17.06 12.406)" fill="#b6bcbd" fill-rule="evenodd"/>
          <path id="Trazado_913715" data-name="Trazado 913715" d="M192.371,138.994l3.463.309c.186.017.285.206.305.415l.279,2.985a.346.346,0,0,1-.374.354l-4.5-.422a.347.347,0,0,1-.305-.414l.761-2.874c.053-.2.187-.37.374-.354" transform="translate(17.083 12.417)" fill="#ced5d6" fill-rule="evenodd"/>
          <path id="Trazado_913716" data-name="Trazado 913716" d="M192.37,138.994l3.465.309a.314.314,0,0,1,.257.217.289.289,0,0,0-.1-.027l-3.464-.31c-.186-.016-.319.15-.374.354l-.76,2.873a.3.3,0,0,0,.011.18.337.337,0,0,1-.169-.368l.761-2.873c.054-.2.186-.37.373-.354" transform="translate(17.083 12.417)" fill="#e6eeef" fill-rule="evenodd"/>
          <path id="Trazado_913717" data-name="Trazado 913717" d="M187.909,140.924l52.562,4.7a.868.868,0,0,1,.785.939l-.27,3.015a.867.867,0,0,1-.938.785l-52.563-4.7a.868.868,0,0,1-.784-.939l.269-3.015a.868.868,0,0,1,.939-.784" transform="translate(16.679 12.589)" fill="#ced5d6" fill-rule="evenodd"/>
          <path id="Trazado_913718" data-name="Trazado 913718" d="M187.909,140.924l52.562,4.7a.866.866,0,0,1,.68.444.836.836,0,0,0-.167-.033l-52.562-4.7a.867.867,0,0,0-.939.784l-.27,3.015a.858.858,0,0,0,.107.495.866.866,0,0,1-.619-.906l.269-3.015a.868.868,0,0,1,.939-.784" transform="translate(16.679 12.589)" fill="#e6eeef" fill-rule="evenodd"/>
          <path id="Trazado_913719" data-name="Trazado 913719" d="M240.039,150.011l-52.562-4.7a.872.872,0,0,1-.681-.444.86.86,0,0,0,.168.032l52.562,4.7a.869.869,0,0,0,.939-.785l.27-3.015a.86.86,0,0,0-.107-.495.869.869,0,0,1,.619.906l-.27,3.015a.866.866,0,0,1-.938.785" transform="translate(16.688 12.942)" fill="#b6bcbd" fill-rule="evenodd"/>
          <rect id="Rectángulo_403320" data-name="Rectángulo 403320" width="3.778" height="41.743" transform="matrix(0.884, -0.467, 0.467, 0.884, 43.902, 117.973)" fill="#547d56"/>
          <rect id="Rectángulo_403321" data-name="Rectángulo 403321" width="2.884" height="40.859" transform="translate(44.507 118.153) rotate(-27.833)" fill="#71a673"/>
          <rect id="Rectángulo_403322" data-name="Rectángulo 403322" width="0.815" height="40.86" transform="matrix(0.884, -0.467, 0.467, 0.884, 44.939, 117.925)" fill="#97c797"/>
          <path id="Trazado_913720" data-name="Trazado 913720" d="M61.333,149.75a5.278,5.278,0,1,0-5.279-5.279,5.289,5.289,0,0,0,5.279,5.279" transform="translate(5.008 12.435)" fill="#456646" fill-rule="evenodd"/>
          <path id="Trazado_913721" data-name="Trazado 913721" d="M61.276,149a4.584,4.584,0,1,0-4.585-4.584A4.594,4.594,0,0,0,61.276,149" transform="translate(5.065 12.492)" fill="#71a673" fill-rule="evenodd"/>
          <path id="Trazado_913722" data-name="Trazado 913722" d="M61.242,148.547a4.167,4.167,0,1,0-4.168-4.167,4.175,4.175,0,0,0,4.168,4.167" transform="translate(5.099 12.526)" fill="#456646" fill-rule="evenodd"/>
          <path id="Trazado_913723" data-name="Trazado 913723" d="M78.332,139.354h0a.963.963,0,0,1,.959.961v5.351a.959.959,0,0,1-1.917,0v-5.351a.963.963,0,0,1,.959-.961" transform="translate(6.912 12.449)" fill="#aab7a8" fill-rule="evenodd"/>
          <path id="Trazado_913724" data-name="Trazado 913724" d="M78.244,139.507h0a.665.665,0,0,1,.663.662v4.623a.663.663,0,1,1-1.327,0v-4.623a.664.664,0,0,1,.663-.662" transform="translate(6.931 12.463)" fill="#c1cfbf" fill-rule="evenodd"/>
          <path id="Trazado_913725" data-name="Trazado 913725" d="M78.392,139.525h0q.042.011.082.026a.664.664,0,0,0-.472.633v4.59a.661.661,0,0,0,.474.631c-.027.011-.056.02-.084.028h0a.663.663,0,0,1-.662-.659v-4.59a.662.662,0,0,1,.663-.659" transform="translate(6.944 12.465)" fill="#d8e8d5" fill-rule="evenodd"/>
          <path id="Trazado_913726" data-name="Trazado 913726" d="M71.418,141.474c9.312,0,17.067,3.76,18.752,8.734h-37.5c1.685-4.974,9.44-8.734,18.752-8.734" transform="translate(4.705 12.639)" fill="#547d56" fill-rule="evenodd"/>
          <path id="Trazado_913727" data-name="Trazado 913727" d="M71.4,141.77c8.419,0,15.433,3.435,16.956,7.976H54.44c1.524-4.541,8.536-7.976,16.957-7.976" transform="translate(4.863 12.665)" fill="#71a673" fill-rule="evenodd"/>
          <path id="Trazado_913728" data-name="Trazado 913728" d="M72.265,142.014q1.4,0,2.739.126c-6.886.648-12.35,3.7-13.654,7.584H55.873c1.472-4.392,8.252-7.71,16.392-7.71" transform="translate(4.991 12.687)" fill="#97c797" fill-rule="evenodd"/>
          <rect id="Rectángulo_403323" data-name="Rectángulo 403323" width="41.743" height="3.779" transform="translate(44.545 114.149) rotate(-32.173)" fill="#547d56"/>
          <rect id="Rectángulo_403324" data-name="Rectángulo 403324" width="40.86" height="2.883" transform="translate(45.155 114.288) rotate(-32.159)" fill="#71a673"/>
          <rect id="Rectángulo_403325" data-name="Rectángulo 403325" width="40.859" height="0.815" transform="matrix(0.847, -0.532, 0.532, 0.847, 45.421, 114.71)" fill="#97c797"/>
          <path id="Trazado_913729" data-name="Trazado 913729" d="M41.966,110.863A3.863,3.863,0,1,0,38.1,107a3.869,3.869,0,0,0,3.863,3.862" transform="translate(3.404 9.214)" fill="#456646" fill-rule="evenodd"/>
          <path id="Trazado_913730" data-name="Trazado 913730" d="M41.924,110.313a3.355,3.355,0,1,0-3.355-3.355,3.361,3.361,0,0,0,3.355,3.355" transform="translate(3.446 9.255)" fill="#71a673" fill-rule="evenodd"/>
          <path id="Trazado_913731" data-name="Trazado 913731" d="M41.9,109.983a3.051,3.051,0,1,0-3.05-3.05,3.056,3.056,0,0,0,3.05,3.05" transform="translate(3.471 9.28)" fill="#456646" fill-rule="evenodd"/>
          <path id="Trazado_913732" data-name="Trazado 913732" d="M75.029,88.723A3.023,3.023,0,1,0,72.006,85.7a3.029,3.029,0,0,0,3.023,3.023" transform="translate(6.433 7.386)" fill="#456646" fill-rule="evenodd"/>
          <path id="Trazado_913733" data-name="Trazado 913733" d="M75,88.293a2.626,2.626,0,1,0-2.626-2.625A2.631,2.631,0,0,0,75,88.293" transform="translate(6.465 7.419)" fill="#71a673" fill-rule="evenodd"/>
          <path id="Trazado_913734" data-name="Trazado 913734" d="M74.977,88.034a2.387,2.387,0,1,0-2.387-2.387,2.391,2.391,0,0,0,2.387,2.387" transform="translate(6.485 7.438)" fill="#456646" fill-rule="evenodd"/>
          <path id="Trazado_913735" data-name="Trazado 913735" d="M89.155,96.215a3.571,3.571,0,1,1-5.027-.478,3.573,3.573,0,0,1,5.027.478" transform="translate(7.4 8.48)" fill="#e6ece4" fill-rule="evenodd"/>
          <path id="Trazado_913736" data-name="Trazado 913736" d="M88.776,96.377a3.216,3.216,0,0,1-.43,4.527c-.072.06-.146.114-.221.167a3.215,3.215,0,0,0-4.081-4.939c.065-.065.133-.126.2-.186a3.216,3.216,0,0,1,4.527.431" transform="translate(7.508 8.506)" fill="#fafafa" fill-rule="evenodd"/>
          <path id="Trazado_913737" data-name="Trazado 913737" d="M88.711,86.01l9.922,4.629L76.459,108.958,73.785,98.341c-3.21-12.756,2.951-17.8,14.926-12.33" transform="translate(6.516 7.488)" fill="#618f63" fill-rule="evenodd"/>
          <path id="Trazado_913738" data-name="Trazado 913738" d="M88.244,86.3l9.317,4.488L77.166,107.635l-2.649-10C71.334,85.63,77,80.987,88.244,86.3" transform="translate(6.579 7.515)" fill="#71a673" fill-rule="evenodd"/>
          <path id="Trazado_913739" data-name="Trazado 913739" d="M87.873,86.759l8.55,4.719L93.71,93.72l-7.852-5.7c-4.564-3.313-8.049-4-10.182-2.466,2.716-1.816,6.624-1.873,12.2,1.2" transform="translate(6.761 7.531)" fill="#a2c79f" fill-rule="evenodd"/>
          <rect id="Rectángulo_403326" data-name="Rectángulo 403326" width="11.282" height="50.356" transform="translate(341.235 249.372)" fill="#aaafb1"/>
          <rect id="Rectángulo_403327" data-name="Rectángulo 403327" width="8.424" height="50.356" transform="translate(342.167 249.372)" fill="#c2c8ca"/>
          <rect id="Rectángulo_403328" data-name="Rectángulo 403328" width="3.025" height="50.356" transform="translate(342.979 249.372)" fill="#e6eeef"/>
          <rect id="Rectángulo_403329" data-name="Rectángulo 403329" width="1.243" height="50.356" transform="translate(346.722 249.372)" fill="#e6eeef"/>
          <rect id="Rectángulo_403330" data-name="Rectángulo 403330" width="1.081" height="50.356" transform="translate(351.437 249.372)" fill="#85898a"/>
          <path id="Trazado_913740" data-name="Trazado 913740" d="M353.581,241.629c-3.838.255-6.136-6.719-2.291-6.982,35.3-2.412,32.582-56.821,32.037-85.2-.075-3.843,5.717-3.731,5.844.114,1.085,32.84,3.467,89.332-35.591,92.066" transform="translate(31.206 13.099)" fill="#2a4045"/>
          <path id="Trazado_913741" data-name="Trazado 913741" d="M284.1,219.337h76.226a8.016,8.016,0,1,1,0,16.033H284.1a8.016,8.016,0,0,1,0-16.033" transform="translate(24.664 19.595)" fill="#2a4045" fill-rule="evenodd"/>
          <path id="Trazado_913742" data-name="Trazado 913742" d="M275.187,211.507H370.83a8.016,8.016,0,0,1,0,16.032H275.187a8.016,8.016,0,0,1,0-16.032" transform="translate(23.868 18.895)" fill="#47368d" fill-rule="evenodd"/>
          <path id="Trazado_913743" data-name="Trazado 913743" d="M275.187,211.507H370.83a8.01,8.01,0,0,1,7.778,9.941,8.044,8.044,0,0,0-7.778-6.089H275.187a8.045,8.045,0,0,0-7.779,6.089,7.91,7.91,0,0,1-.235-1.926,8.038,8.038,0,0,1,8.014-8.015" transform="translate(23.868 18.895)" fill="#7466ae" fill-rule="evenodd"/>
          <path id="Trazado_913744" data-name="Trazado 913744" d="M273.582,309.741a7.685,7.685,0,1,0-7.687-7.686,7.7,7.7,0,0,0,7.687,7.686" transform="translate(23.754 26.298)" fill-rule="evenodd"/>
          <path id="Trazado_913745" data-name="Trazado 913745" d="M273.364,306.863a5.026,5.026,0,1,0-5.025-5.026,5.035,5.035,0,0,0,5.025,5.026" transform="translate(23.972 26.516)" fill="#4d4d4d" fill-rule="evenodd"/>
          <path id="Trazado_913746" data-name="Trazado 913746" d="M273.154,304.095a2.467,2.467,0,1,0-2.468-2.468,2.473,2.473,0,0,0,2.468,2.468" transform="translate(24.182 26.726)" fill="#999" fill-rule="evenodd"/>
          <path id="Trazado_913747" data-name="Trazado 913747" d="M273.11,303.512a1.929,1.929,0,1,0-1.929-1.929,1.933,1.933,0,0,0,1.929,1.929" transform="translate(24.226 26.77)" fill="#4d4d4d" fill-rule="evenodd"/>
          <path id="Trazado_913748" data-name="Trazado 913748" d="M364.537,309.741a7.685,7.685,0,1,0-7.685-7.686,7.7,7.7,0,0,0,7.685,7.686" transform="translate(31.88 26.298)" fill-rule="evenodd"/>
          <path id="Trazado_913749" data-name="Trazado 913749" d="M364.319,306.863a5.026,5.026,0,1,0-5.025-5.026,5.035,5.035,0,0,0,5.025,5.026" transform="translate(32.098 26.516)" fill="#4d4d4d" fill-rule="evenodd"/>
          <path id="Trazado_913750" data-name="Trazado 913750" d="M364.109,304.095a2.467,2.467,0,1,0-2.468-2.468,2.473,2.473,0,0,0,2.468,2.468" transform="translate(32.307 26.726)" fill="#999" fill-rule="evenodd"/>
          <path id="Trazado_913751" data-name="Trazado 913751" d="M364.065,303.512a1.929,1.929,0,1,0-1.93-1.929,1.932,1.932,0,0,0,1.93,1.929" transform="translate(32.351 26.77)" fill="#4d4d4d" fill-rule="evenodd"/>
          <path id="Trazado_913752" data-name="Trazado 913752" d="M267.781,292.725l55.539-7.651v9.54l-54.249,7.476a4.727,4.727,0,1,1-1.29-9.365" transform="translate(23.558 25.467)" fill="#32393a" fill-rule="evenodd"/>
          <path id="Trazado_913753" data-name="Trazado 913753" d="M322.068,287.138v-1.221l-54.224,7.472a3.582,3.582,0,0,0-3.049,4.025l.019.125a3.59,3.59,0,0,1,3.031-2.929Z" transform="translate(23.653 25.543)" fill="#4b5e62" fill-rule="evenodd"/>
          <path id="Trazado_913754" data-name="Trazado 913754" d="M373.97,292.725l-55.539-7.651v9.54l54.248,7.476a4.727,4.727,0,0,0,1.291-9.365" transform="translate(28.447 25.467)" fill="#32393a" fill-rule="evenodd"/>
          <path id="Trazado_913755" data-name="Trazado 913755" d="M319.491,287.138v-1.221l54.224,7.472a3.585,3.585,0,0,1,3.051,4.025l-.021.125a3.59,3.59,0,0,0-3.031-2.929Z" transform="translate(28.542 25.543)" fill="#4b5e62" fill-rule="evenodd"/>
          <path id="Trazado_913756" data-name="Trazado 913756" d="M310.726,271.1h16.951a.945.945,0,0,1,.942.942V290.19H309.784V272.042a.945.945,0,0,1,.942-.942" transform="translate(27.675 24.219)" fill="#32393a" fill-rule="evenodd"/>
          <path id="Trazado_913757" data-name="Trazado 913757" d="M311.425,271.439h13.8a.947.947,0,0,1,.978.905V289.79H310.445V272.344a.948.948,0,0,1,.98-.905" transform="translate(27.734 24.249)" fill="#4b5e62" fill-rule="evenodd"/>
          <path id="Trazado_913758" data-name="Trazado 913758" d="M312.841,271.439h5.187a.947.947,0,0,1,.978.905V289.79h-7.146V272.344a.947.947,0,0,1,.98-.905" transform="translate(27.86 24.249)" fill="#708a90" fill-rule="evenodd"/>
          <path id="Trazado_913759" data-name="Trazado 913759" d="M337.7,178.173l4.293-5,46.729,10.782c-1.983,14.348-12.083,28.958-33.048,31.572-30.731,3.833-87.5,1.816-97.485,4.5-1.9,39.234-36.629,54.986-36.066,85.049l-.117,6.265L192.015,308.8l-3.283-4.266a85.9,85.9,0,0,1,8.769-1.13c22.323-2.578,34.6-79.09,39.507-97.642,3.394-12.808,11.085-11.4,21.554-13.677,27.531-5.978,51.607-12.064,79.138-13.914" transform="translate(16.86 15.47)" fill="#f2e6c9" fill-rule="evenodd"/>
          <path id="Trazado_913760" data-name="Trazado 913760" d="M336.962,176.356l3.881-3.187c11.276,2.993,28.9,5.389,38.594,11.682,3.749,20.461,1.94,28.059-18.58,30.617-26.677,3.326-72.773,2.655-89.188,10.513-12.912-5.558-4.329-34.288-14.586-38.448,19.2-3.658,53.8-9.425,79.879-11.177" transform="translate(22.967 15.47)" fill="#8cdeff" fill-rule="evenodd"/>
          <path id="Trazado_913761" data-name="Trazado 913761" d="M336.962,176.356l3.881-3.187c11.276,2.993,28.9,5.389,38.594,11.682,3.749,20.461,1.94,28.059-18.58,30.617-26.677,3.326-72.773,2.655-89.188,10.513-12.912-5.558-4.329-34.288-14.586-38.448.987-.188,2.019-.383,3.085-.581,5.561,5.146,5.317,15,7.855,21.6,3.025,7.864,2.54,7.953,12.784,7.953a222,222,0,0,0,73.862-11.931c-9.972-6.781-15.791-21.741-25.227-27.63,2.568-.229,5.081-.428,7.519-.592" transform="translate(22.967 15.47)" fill="#359fc9" fill-rule="evenodd"/>
          <path id="Trazado_913762" data-name="Trazado 913762" d="M325.332,186.181c6.578-11.918,10.623-18.193,11.161-25.069.785-10.049-3.377-18.612-5.67-33.68-4.291-4.108-8.587-13.348-7.753-16.666,2.953-2.758,4.648-5.86,9.447-11.107,4.63-5.066,8.974-12.553,13.81-17.192,12.362-11.854,24.427-19.183,31.236-5.989,17.2,35.042-17,99.331,4.766,139.894-29.931,7.124-38.81-26.923-57-30.191" transform="translate(28.852 6.204)" fill="#2fad66" fill-rule="evenodd"/>
          <path id="Trazado_913763" data-name="Trazado 913763" d="M325.138,186.181q.747-1.353,1.447-2.61c18.183,2.237,40.205,27.758,39.618,17.488-.431-7.589-1.47-24.9.007-42.267a164.508,164.508,0,0,1,7.1-34.435c5.681-17.036,11.489-57.48-14.772-51.419-.032-.122-.061-.243-.085-.365,7.645-4.569,14.427-4.8,18.921,3.905,17.2,35.042-17,99.331,4.766,139.894-29.931,7.124-38.81-26.923-57-30.191" transform="translate(29.046 6.204)" fill="#0e8341" fill-rule="evenodd"/>
          <path id="Trazado_913764" data-name="Trazado 913764" d="M333.848,142.106c-1.072-4.434-2.277-9.394-3.19-15.381-1.275-1.22-4.715-7.864-5.855-9.7,1.592-2.123,2.9-4.814,5.04-7.655a23.564,23.564,0,0,1-1.589-3.047c6.651-3.864,12-13.466,17.6-22.261,13.359-16.7,39.335.686,27.392,20.717-4.833,8.111-13.677,16.73-19.814,28.266-2.071-1.27-4.125-2.521-6.116-3.8-4.349,4.595-8.853,8.863-13.467,12.861" transform="translate(29.016 6.911)" fill="#0e8341" fill-rule="evenodd"/>
          <path id="Trazado_913765" data-name="Trazado 913765" d="M368.329,73.384c-5.923-10.62-6.587-18.145-1.215-29.825,4.868-4.416,6.51-2.6,8.744-12.739,5.534-25.131-26.423-32.34-45.446-19.593-4.686,3.143-3.306,7.315-5.123,12.027-.376.977-1.132,1.825-.319,2.962a6.759,6.759,0,0,1,1.411,4.912c-.878,5.083-8.2,10.454-6.563,11.843a8.225,8.225,0,0,0,2.592,1.5c2.228,1.083,1.878,3.953.646,5.832A3.024,3.024,0,0,0,325,51.636c.014.025.027.05.038.073A1.572,1.572,0,0,0,323.515,53a9.519,9.519,0,0,1,1.638,2.115,9.075,9.075,0,0,1-.072,5.265c-.7,2.708,3.192,6.053,7.418,4.217a52.41,52.41,0,0,1,6.569-2.331c1.813.533,6.789,1.5,7.715,3.068a19.905,19.905,0,0,1,2.5,14.657c6.344-6.069,13.1-7.312,19.042-6.6" transform="translate(28.55 0.451)" fill="#f2e6c9" fill-rule="evenodd"/>
          <path id="Trazado_913766" data-name="Trazado 913766" d="M324.351,23.879a1.921,1.921,0,0,0,.315.656,6.759,6.759,0,0,1,1.411,4.912,14.652,14.652,0,0,1-3.1,5.879c4.759-4.507,11.349-.566,8.821-6.666-.87-2.1-5.07-3.532-7.451-4.781" transform="translate(28.854 2.133)" fill="#e5dabe" fill-rule="evenodd"/>
          <path id="Trazado_913767" data-name="Trazado 913767" d="M322.83,46.507l-.06.092a3.021,3.021,0,0,0,1.949,1.334.7.7,0,0,1,.039.074,1.568,1.568,0,0,0-1.52,1.251,1.174,1.174,0,0,0,1.17-.235,2.253,2.253,0,0,1,1.566-.651c.378,0-1.083-.777-1.507-1.3a2.208,2.208,0,0,0-1.638-.562" transform="translate(28.835 4.155)" fill="#fa9aa3" fill-rule="evenodd"/>
          <path id="Trazado_913768" data-name="Trazado 913768" d="M371.868,76.171c-11.079-8.654-10.257-22.319-5.2-32.613,4.868-4.416,6.511-2.6,8.745-12.739,5.534-25.131-26.421-32.34-45.446-19.593-4.15,2.783-3.525,6.373-4.534,10.43,7.4,5.2,18.227,11.152,11.324,21.637-2.824,4.284.144,18.147-6.419,20.655-1.424.544-5.968.1-5.538-4.236-.053.231-.109.452-.163.663-.7,2.708,2.773,5.4,7.265,4.37,3.85-.881,10.326-3.17,14.217.692,6.4,10.23.819,21.389-8.663,33.591,2.77-1.747,9.653-13.107,18.349-17.65,4.434-2.317,8.921-6.278,16.063-5.208" transform="translate(28.994 0.451)" fill="#e5dabe" fill-rule="evenodd"/>
          <path id="Trazado_913769" data-name="Trazado 913769" d="M387.835,187.727a7.233,7.233,0,1,1-12.842,6.658c-6.02-11.613-8.245-26.938-7-41.433,1.257-14.6,6.078-28.673,14.142-37.7a7.233,7.233,0,0,1,10.783,9.642c-5.906,6.614-9.5,17.583-10.5,29.282-1.034,11.986.683,24.422,5.415,33.554" transform="translate(32.845 10.08)" fill="#47368d"/>
          <path id="Trazado_913770" data-name="Trazado 913770" d="M377.851,197.348a7.179,7.179,0,0,1-2.857-2.963c-6.019-11.613-8.244-26.938-7-41.433,1.257-14.6,6.078-28.673,14.143-37.7a7.234,7.234,0,0,1,11.644,1.185,7.234,7.234,0,0,0-8.958,1.472c-8.063,9.028-12.885,23.1-14.142,37.7-1.249,14.494.976,29.821,7,41.433q.08.157.17.307" transform="translate(32.845 10.08)" fill="#7466ae"/>
          <path id="Trazado_913771" data-name="Trazado 913771" d="M233.138,310.307,130.6,287.861v22.462Z" transform="translate(11.668 25.716)" fill="#b56414" fill-rule="evenodd"/>
          <path id="Trazado_913772" data-name="Trazado 913772" d="M233.138,310.307l-5.053-1.107-95.95-1.081-.556-20.045-.976-.214v22.462Z" transform="translate(11.668 25.716)" fill="#66210a" fill-rule="evenodd"/>
          <path id="Trazado_913773" data-name="Trazado 913773" d="M358.369,87.127c-31.425,38.12-27.9,38.958-43.761,48.715-18.208,2.321-45.765,14.915-63.294,11.451a20.566,20.566,0,0,1-4.428-1.164c-3.333-1.3-8-2.742-8.891-2.557-4.7.98-8.585.755-12.789,1.046-2.971.353-5.239,1.35-7.985,1.935-2.1.744-1.815,2.767.4,2.707l10.778.887c5.85.828,6.437,2.759,9.779,4.4,3.978,1.62,8.929.939,13.589.536,22.384-1.936,47.831,3.336,69.077-2.726,20.305-13.2,38.915-33.062,55.583-52.441,12.061-14.023-7.2-26.877-18.057-12.789" transform="translate(19.278 7.238)" fill="#f2e6c9" fill-rule="evenodd"/>
          <path id="Trazado_913774" data-name="Trazado 913774" d="M346.452,84.5c-5.6,8.589-11,18.407-17.651,22.027,3.927,9.611,12.921,15.219,22.208,21.256,6.137-11.309,13.5-16.119,18.34-24.054,11.941-19.593-9.538-35.435-22.9-19.23" transform="translate(29.374 6.95)" fill="#2fad66" fill-rule="evenodd"/>
          <path id="Trazado_913775" data-name="Trazado 913775" d="M246.241,162.862h-13.9L255.6,321.489h5.231Z" transform="translate(20.756 14.549)" fill="#b56414" fill-rule="evenodd"/>
          <path id="Trazado_913776" data-name="Trazado 913776" d="M246.971,162.862h-13.9l.151,1.057H245.65l14.592,157.57h.527Z" transform="translate(20.822 14.549)" fill="#efba40" fill-rule="evenodd"/>
          <path id="Trazado_913777" data-name="Trazado 913777" d="M234.343,162.862h-2L255.6,321.489h5.231l-.634-1.057h-3.54Z" transform="translate(20.756 14.549)" fill="#66210a" fill-rule="evenodd"/>
          <path id="Trazado_913778" data-name="Trazado 913778" d="M246.241,162.862h-13.9l2.3,15.71,12.7-3.7Z" transform="translate(20.756 14.549)" fill="#915010" fill-rule="evenodd"/>
          <path id="Trazado_913779" data-name="Trazado 913779" d="M246.971,162.862h-13.9l.151,1.057H245.65l1.029,11.124,1.317-.385Z" transform="translate(20.822 14.549)" fill="#b38c30" fill-rule="evenodd"/>
          <path id="Trazado_913780" data-name="Trazado 913780" d="M234.343,162.862h-2l2.3,15.71,1.848-.538Z" transform="translate(20.756 14.549)" fill="#4c1908" fill-rule="evenodd"/>
          <path id="Trazado_913781" data-name="Trazado 913781" d="M57.845,162.862h13.9L48.482,321.489H43.25Z" transform="translate(3.864 14.549)" fill="#b56414" fill-rule="evenodd"/>
          <path id="Trazado_913782" data-name="Trazado 913782" d="M57.049,162.862h13.9l-.149,1.057H58.369L43.779,321.489H43.25Z" transform="translate(3.864 14.549)" fill="#efba40" fill-rule="evenodd"/>
          <path id="Trazado_913783" data-name="Trazado 913783" d="M69.741,162.862h2L48.482,321.489H43.25l.635-1.057h3.541Z" transform="translate(3.864 14.549)" fill="#66210a" fill-rule="evenodd"/>
          <path id="Trazado_913784" data-name="Trazado 913784" d="M56.739,162.862h13.9l-2.3,15.71-12.7-3.7Z" transform="translate(4.97 14.549)" fill="#915010" fill-rule="evenodd"/>
          <path id="Trazado_913785" data-name="Trazado 913785" d="M56,162.862H69.9l-.149,1.057H57.322l-1.029,11.124-1.317-.385Z" transform="translate(4.911 14.549)" fill="#b38c30" fill-rule="evenodd"/>
          <path id="Trazado_913786" data-name="Trazado 913786" d="M67.745,162.862h2l-2.3,15.71-1.849-.538Z" transform="translate(5.86 14.549)" fill="#4c1908" fill-rule="evenodd"/>
          <path id="Trazado_913787" data-name="Trazado 913787" d="M26.967,155.892H297.061a.8.8,0,0,1,.794.794v12.332a.8.8,0,0,1-.794.793H26.967a.8.8,0,0,1-.794-.793V156.686a.8.8,0,0,1,.794-.794" transform="translate(2.338 13.927)" fill="#b56414" fill-rule="evenodd"/>
          <path id="Trazado_913788" data-name="Trazado 913788" d="M26.967,155.892H297.061a.8.8,0,0,1,.794.794v8.558L26.173,159.851v-3.165a.8.8,0,0,1,.794-.794" transform="translate(2.338 13.927)" fill="#984c11" fill-rule="evenodd"/>
          <path id="Trazado_913789" data-name="Trazado 913789" d="M297.855,167.376v.615a.8.8,0,0,1-.794.794H26.967a.8.8,0,0,1-.794-.794v-.615Z" transform="translate(2.338 14.953)" fill="#66210a" fill-rule="evenodd"/>
          <path id="Trazado_913790" data-name="Trazado 913790" d="M16.955,149.591H308.863a.8.8,0,0,1,.793.794v6.878a.8.8,0,0,1-.793.794H16.955a.8.8,0,0,1-.794-.794v-6.878a.8.8,0,0,1,.794-.794" transform="translate(1.444 13.364)" fill="#d8982b" fill-rule="evenodd"/>
          <path id="Trazado_913791" data-name="Trazado 913791" d="M309.656,156.269v.4a.8.8,0,0,1-.793.8H16.955a.8.8,0,0,1-.794-.8v-.4Z" transform="translate(1.444 13.96)" fill="#66210a" fill-rule="evenodd"/>
          <path id="Trazado_913792" data-name="Trazado 913792" d="M309.656,150.784v-.4a.8.8,0,0,0-.793-.8H16.955a.8.8,0,0,0-.794.8v.4Z" transform="translate(1.444 13.364)" fill="#efba40" fill-rule="evenodd"/>
          <path id="Trazado_913793" data-name="Trazado 913793" d="M321.83,25.164h0a.767.767,0,0,1,.815.63l1.511,12.362a.7.7,0,0,1-.63.816.764.764,0,0,1-.815-.629L321.2,25.98a.7.7,0,0,1,.627-.816" transform="translate(28.694 2.248)" fill="#999" fill-rule="evenodd"/>
          <path id="Trazado_913794" data-name="Trazado 913794" d="M322.454,30.83l22.6-.007v.642l-11.523.409-1.034.334-9.94.353Z" transform="translate(28.807 2.754)" fill="#999" fill-rule="evenodd"/>
          <path id="Trazado_913795" data-name="Trazado 913795" d="M334.291,22.74c1.468.489.453,11.783.158,12.436.382-9.15-12.015-15.654-12.618-20.277-.516-3.978,5.357-9.088,9.79-9.088,6-6.275,32.6-6.572,39.415,2.023,5.8,2.373,13.255,11.972,12.945,21.554-.451,13.935-12.6,32.428-7.923,45.133-3.393-.849-4.924-4.13-6.113-6.905-1.423,1.422-2.159,2.84-1.878,5.91-4.149-2.257-5.212-6.667-6.991-9.209a15.914,15.914,0,0,0-1.578,8.3c-3.488-4.549-4.845-6.5-6.234-13.415-.656,2.619-4.076,7.419-8.206,9.274,2.127-3.583,1.985-4.793,1.565-8.785-.415,3.326-3.313,7.085-7.994,9.134,4.447-6.817,7.049-37.827-4.338-46.079" transform="translate(28.748 0.11)" fill="#801a00" fill-rule="evenodd"/>
          <path id="Trazado_913796" data-name="Trazado 913796" d="M152.962,60.219a.386.386,0,0,1-.062-.767L326.52,31.114h-174.8a.386.386,0,0,1,0-.772H331.282a.386.386,0,0,1,.062.767l-178.319,29.1a.316.316,0,0,1-.063.005" transform="translate(13.519 2.711)" fill="#666"/>
          <path id="Trazado_913797" data-name="Trazado 913797" d="M215.118,27.613V24.078h-3.66V22.926l3.433-7.482h1.336v7.6h1.38v1.035h-1.38v3.535Zm-2.531-4.57h2.531v-6.11Z" transform="translate(18.891 1.38)" fill="#666"/>
          <path id="Trazado_913798" data-name="Trazado 913798" d="M221.184,27.778q-2.9,0-2.9-3.595V18.9q0-3.572,2.9-3.572t2.905,3.572v5.282q0,3.595-2.905,3.595m0-.888q1.783,0,1.783-2.611V18.814a5.7,5.7,0,0,0-.085-1.035,2.916,2.916,0,0,0-.279-.817,1.326,1.326,0,0,0-.553-.565,1.8,1.8,0,0,0-.866-.195,1.773,1.773,0,0,0-.862.195,1.362,1.362,0,0,0-.554.561,2.815,2.815,0,0,0-.282.818,5.755,5.755,0,0,0-.085,1.038v5.465q0,2.611,1.783,2.611" transform="translate(19.501 1.369)" fill="#666"/>
          <rect id="Rectángulo_403331" data-name="Rectángulo 403331" width="3.198" height="0.865" transform="translate(245.02 23.66)" fill="#666"/>
          <path id="Trazado_913799" data-name="Trazado 913799" d="M230.556,27.613l2.369-11.282h-3.683v-.88h4.8v.536l-2.414,11.626Z" transform="translate(20.479 1.38)" fill="#666"/>
          <path id="Trazado_913800" data-name="Trazado 913800" d="M238.072,27.753A2.468,2.468,0,0,1,236,26.932a3.948,3.948,0,0,1-.642-2.458h1.1a3.462,3.462,0,0,0,.374,1.79,1.376,1.376,0,0,0,1.276.609,1.347,1.347,0,0,0,1.34-.741,5.818,5.818,0,0,0,.355-2.363,5.285,5.285,0,0,0-.374-2.354,1.355,1.355,0,0,0-1.3-.682,1.794,1.794,0,0,0-1.578,1.02h-.923v-6.3h4.738l-.022,1.027H236.6l-.058,4.218a2.242,2.242,0,0,1,1.863-.807,2.053,2.053,0,0,1,1.892.958,5.4,5.4,0,0,1,.587,2.791,5.78,5.78,0,0,1-.661,3.081,2.36,2.36,0,0,1-2.156,1.035" transform="translate(21.026 1.38)" fill="#666"/>
          <path id="Trazado_913801" data-name="Trazado 913801" d="M246.854,27.479a2.657,2.657,0,0,1-1.02-.176,1.81,1.81,0,0,1-.675-.459,2.011,2.011,0,0,1-.392-.744,4.887,4.887,0,0,1-.191-.936q-.047-.472-.048-1.118V22.021a9.982,9.982,0,0,1,.1-1.574,3.12,3.12,0,0,1,.363-1.074,1.529,1.529,0,0,1,.711-.649,2.815,2.815,0,0,1,1.141-.2,2.985,2.985,0,0,1,.94.132,1.714,1.714,0,0,1,.641.363,1.63,1.63,0,0,1,.39.59,3.3,3.3,0,0,1,.2.76,6.863,6.863,0,0,1,.056.935v.411h-1.02V21.3a3.144,3.144,0,0,0-.264-1.537,1.006,1.006,0,0,0-.925-.422.976.976,0,0,0-.99.532,5.348,5.348,0,0,0-.242,1.963v2.435a4.6,4.6,0,0,0,.259,1.856.991.991,0,0,0,.98.521,1.366,1.366,0,0,0,.521-.088.864.864,0,0,0,.341-.242,1.108,1.108,0,0,0,.2-.426,2.992,2.992,0,0,0,.095-.575q.023-.3.023-.767v-.477h1.02V24.5a8.67,8.67,0,0,1-.048.99,3.486,3.486,0,0,1-.192.81,1.761,1.761,0,0,1-.38.638,1.685,1.685,0,0,1-.642.392,2.789,2.789,0,0,1-.954.147" transform="translate(21.845 1.655)" fill="#666"/>
          <path id="Trazado_913802" data-name="Trazado 913802" d="M250.037,27.341V18.656h1.034v.88a2.61,2.61,0,0,1,2.047-1.034,1.311,1.311,0,0,1,1.365,1.144,2.677,2.677,0,0,1,2.142-1.144,1.355,1.355,0,0,1,1.06.465,2.27,2.27,0,0,1,.414,1.522v6.852h-1.041V20.518a1.65,1.65,0,0,0-.22-.99.759.759,0,0,0-.631-.279,2.326,2.326,0,0,0-1.636.9c.01.147.015.259.015.337v6.852h-1.027V20.518a1.612,1.612,0,0,0-.228-.99.778.778,0,0,0-.637-.279,2.285,2.285,0,0,0-1.622.9v7.189Z" transform="translate(22.337 1.653)" fill="#666"/>
          <path id="Trazado_913803" data-name="Trazado 913803" d="M174.222,45.885V38.532h.876v.745a2.21,2.21,0,0,1,1.733-.876,1.111,1.111,0,0,1,1.155.97,2.267,2.267,0,0,1,1.813-.97,1.144,1.144,0,0,1,.9.4,1.914,1.914,0,0,1,.351,1.288v5.8h-.881V40.109a1.4,1.4,0,0,0-.186-.838.642.642,0,0,0-.535-.236,1.973,1.973,0,0,0-1.385.764c.009.124.013.22.013.285v5.8h-.87V40.109a1.359,1.359,0,0,0-.193-.838.655.655,0,0,0-.539-.236,1.933,1.933,0,0,0-1.373.764v6.086Z" transform="translate(15.564 3.431)" fill="#666"/>
          <path id="Trazado_913804" data-name="Trazado 913804" d="M181.838,36.429h.938V37.7h-.938Zm0,2.279h.931v7.353h-.931Z" transform="translate(16.245 3.254)" fill="#666"/>
          <path id="Trazado_913805" data-name="Trazado 913805" d="M184.124,45.883V38.53h.931v.765a2.4,2.4,0,0,1,1.77-.877.968.968,0,0,1,.838.407,1.964,1.964,0,0,1,.293,1.158v5.9h-.932v-5.7a1.4,1.4,0,0,0-.171-.8.612.612,0,0,0-.531-.236,1.857,1.857,0,0,0-1.267.678v6.055Z" transform="translate(16.449 3.432)" fill="#666"/>
          <path id="Trazado_913806" data-name="Trazado 913806" d="M191.21,46.125v-.683l2.769-4.254q.044-.075.2-.3c.1-.154.172-.256.2-.308s.091-.146.174-.285.141-.242.173-.31.081-.166.141-.292a1.991,1.991,0,0,0,.127-.329c.024-.093.053-.2.087-.329a2.19,2.19,0,0,0,.064-.376c.011-.124.015-.253.015-.385a2.164,2.164,0,0,0-.346-1.308,1.2,1.2,0,0,0-1.025-.468,1.73,1.73,0,0,0-.786.161,1.109,1.109,0,0,0-.487.47,2.354,2.354,0,0,0-.24.671,4.493,4.493,0,0,0-.071.846v.236h-.926v-.26a3.384,3.384,0,0,1,.594-2.174,2.279,2.279,0,0,1,1.871-.727,2.2,2.2,0,0,1,1.749.683,2.843,2.843,0,0,1,.6,1.931,3.558,3.558,0,0,1-.075.728,5.055,5.055,0,0,1-.168.626,4.109,4.109,0,0,1-.289.624c-.131.239-.236.423-.319.553s-.209.321-.379.574l-2.572,3.9h3.577v.789Z" transform="translate(17.082 3.191)" fill="#666"/>
          <path id="Trazado_913807" data-name="Trazado 913807" d="M199.37,46.255q-2.454,0-2.454-3.044V38.741q0-3.025,2.454-3.024t2.458,3.024v4.471q0,3.044-2.458,3.044m0-.752q1.507,0,1.508-2.21V38.667a4.838,4.838,0,0,0-.071-.876,2.466,2.466,0,0,0-.236-.693,1.121,1.121,0,0,0-.468-.478,1.709,1.709,0,0,0-1.463,0,1.158,1.158,0,0,0-.468.475,2.39,2.39,0,0,0-.24.693,4.89,4.89,0,0,0-.071.879v4.626q0,2.211,1.51,2.21" transform="translate(17.592 3.191)" fill="#666"/>
          <path id="Trazado_913808" data-name="Trazado 913808" d="M203.834,41.957q-1.431,0-1.43-1.773V37.576q0-1.761,1.43-1.763t1.434,1.763v2.608q0,1.773-1.434,1.773m0-.438q.881,0,.88-1.289v-2.7a2.834,2.834,0,0,0-.041-.511,1.432,1.432,0,0,0-.138-.4.644.644,0,0,0-.273-.279,1,1,0,0,0-.853,0,.676.676,0,0,0-.273.277,1.417,1.417,0,0,0-.139.4,2.855,2.855,0,0,0-.041.512v2.7q0,1.289.88,1.289" transform="translate(18.082 3.199)" fill="#666"/>
          <path id="Trazado_913809" data-name="Trazado 913809" d="M171.874,56.784a.387.387,0,0,1-.314-.16C166.94,50.239,165.974,40.1,169.1,30.8a.386.386,0,1,1,.732.245c-3.05,9.076-2.125,18.941,2.355,25.131a.386.386,0,0,1-.313.612" transform="translate(14.944 2.728)" fill="#666"/>
          <path id="Trazado_913810" data-name="Trazado 913810" d="M18.539,322.072a.386.386,0,0,1-.386-.387V161.055a.386.386,0,1,1,.772,0v160.63a.387.387,0,0,1-.387.387" transform="translate(1.622 14.353)" fill="#666"/>
          <path id="Trazado_913811" data-name="Trazado 913811" d="M12.787,256.785,1.043,254.317v3.834H.127v-4.995H.684l12.1,2.513Z" transform="translate(0.011 22.616)" fill="#666"/>
          <path id="Trazado_913812" data-name="Trazado 913812" d="M12.8,252.137h-.84l-5.231-3.406c-.061-.035-.186-.117-.374-.244s-.315-.211-.379-.252-.18-.112-.351-.214-.3-.174-.381-.215l-.359-.172a2.441,2.441,0,0,0-.405-.156c-.114-.032-.248-.066-.4-.107a2.664,2.664,0,0,0-.462-.081q-.229-.02-.474-.02a2.65,2.65,0,0,0-1.607.428,1.47,1.47,0,0,0-.576,1.26,2.121,2.121,0,0,0,.2.966,1.362,1.362,0,0,0,.576.6,2.912,2.912,0,0,0,.825.294,5.449,5.449,0,0,0,1.042.087h.29v1.138h-.32a4.162,4.162,0,0,1-2.673-.73,2.8,2.8,0,0,1-.893-2.3,2.706,2.706,0,0,1,.841-2.15,3.484,3.484,0,0,1,2.374-.736,4.411,4.411,0,0,1,.894.091,6.348,6.348,0,0,1,.771.206,5.324,5.324,0,0,1,.767.355q.44.242.68.393t.707.466l4.8,3.161v-4.4h.97Z" transform="translate(0 21.988)" fill="#666"/>
          <rect id="Rectángulo_403332" data-name="Rectángulo 403332" width="0.901" height="3.329" transform="translate(7.247 263.319)" fill="#666"/>
          <path id="Trazado_913813" data-name="Trazado 913813" d="M12.787,239.33,1.043,236.864V240.7H.127V235.7H.684l12.1,2.513Z" transform="translate(0.011 21.057)" fill="#666"/>
          <path id="Trazado_913814" data-name="Trazado 913814" d="M12.932,231.568a2.571,2.571,0,0,1-.855,2.157,4.1,4.1,0,0,1-2.559.669v-1.146a3.609,3.609,0,0,0,1.864-.389,1.435,1.435,0,0,0,.634-1.329,1.4,1.4,0,0,0-.771-1.393,6.034,6.034,0,0,0-2.46-.37,5.51,5.51,0,0,0-2.451.389,1.411,1.411,0,0,0-.709,1.352,1.864,1.864,0,0,0,1.061,1.642v.963H.126v-4.934l1.07.023V233.1l4.39.061a2.338,2.338,0,0,1-.84-1.939,2.136,2.136,0,0,1,1-1.971,5.618,5.618,0,0,1,2.905-.61,6.034,6.034,0,0,1,3.207.686,2.461,2.461,0,0,1,1.077,2.245" transform="translate(0.011 20.425)" fill="#666"/>
          <path id="Trazado_913815" data-name="Trazado 913815" d="M12.647,222.341a2.784,2.784,0,0,1-.183,1.062,1.888,1.888,0,0,1-.477.7,2.082,2.082,0,0,1-.776.409,5.018,5.018,0,0,1-.974.2c-.328.033-.717.049-1.164.049H6.965a10.466,10.466,0,0,1-1.637-.107,3.239,3.239,0,0,1-1.119-.379,1.592,1.592,0,0,1-.676-.74,2.931,2.931,0,0,1-.209-1.187,3.113,3.113,0,0,1,.137-.978,1.78,1.78,0,0,1,.378-.668,1.684,1.684,0,0,1,.614-.4,3.324,3.324,0,0,1,.791-.206,7.064,7.064,0,0,1,.974-.058h.427V221.1H6.217a3.269,3.269,0,0,0-1.6.275,1.044,1.044,0,0,0-.439.963,1.014,1.014,0,0,0,.553,1.031,5.56,5.56,0,0,0,2.043.253H9.31a4.769,4.769,0,0,0,1.931-.271,1.034,1.034,0,0,0,.542-1.021,1.42,1.42,0,0,0-.092-.541.918.918,0,0,0-.253-.355,1.139,1.139,0,0,0-.442-.209,3.244,3.244,0,0,0-.6-.1c-.211-.015-.478-.023-.8-.023H9.1v-1.061h.443a9.063,9.063,0,0,1,1.031.05,3.705,3.705,0,0,1,.844.2,1.851,1.851,0,0,1,.664.4,1.74,1.74,0,0,1,.409.668,2.915,2.915,0,0,1,.153.992" transform="translate(0.297 19.657)" fill="#666"/>
          <path id="Trazado_913816" data-name="Trazado 913816" d="M12.5,219.328H3.462v-1.076h.917a2.715,2.715,0,0,1-1.077-2.13A1.365,1.365,0,0,1,4.494,214.7a2.788,2.788,0,0,1-1.192-2.23,1.412,1.412,0,0,1,.485-1.1,2.368,2.368,0,0,1,1.585-.43H12.5v1.084H5.4a1.723,1.723,0,0,0-1.032.229.791.791,0,0,0-.29.657,2.42,2.42,0,0,0,.939,1.7c.154-.01.27-.015.352-.015H12.5v1.07H5.4a1.685,1.685,0,0,0-1.032.235.815.815,0,0,0-.29.666,2.374,2.374,0,0,0,.939,1.687H12.5Z" transform="translate(0.295 18.844)" fill="#666"/>
          <path id="Trazado_913817" data-name="Trazado 913817" d="M282.38,130.305a.386.386,0,0,1-.374-.29c-2.723-10.593,3.536-19.62,10.3-24.537,8.692-6.315,19.274-7.25,26.953-2.374a.386.386,0,1,1-.413.653c-7.412-4.7-17.652-3.782-26.086,2.346-6.56,4.768-12.634,13.5-10.009,23.719a.385.385,0,0,1-.278.469.363.363,0,0,1-.1.013" transform="translate(25.135 8.934)" fill="#666"/>
          <path id="Trazado_913818" data-name="Trazado 913818" d="M277.448,113.881a2.209,2.209,0,0,1-3.505-.041l-.137-.138.676-.676a2.456,2.456,0,0,0,1.271.8,1.405,1.405,0,0,0,1.134-.526,1.233,1.233,0,0,0,.39-1.141,3.264,3.264,0,0,0-1-1.52l-1.426-1.427a1.791,1.791,0,0,1-.16.786,2.724,2.724,0,0,1-.617.878,2.036,2.036,0,0,1-1.8.751,4.472,4.472,0,0,1-2.094-1.373q-2.307-2.307-.5-4.113,1.74-1.743,4.113.631l3.026,3.026q2.359,2.359.635,4.083m-3.748-3.7a1.919,1.919,0,0,0,.622-1.5l-1.307-1.309a3.675,3.675,0,0,0-1.563-1.063,1.23,1.23,0,0,0-1.207.4,1.336,1.336,0,0,0-.441,1.228,3.046,3.046,0,0,0,.939,1.484c.229.228.425.415.587.559a5.942,5.942,0,0,0,.513.409,1.705,1.705,0,0,0,.479.254,1.269,1.269,0,0,0,.447.059.978.978,0,0,0,.459-.139,2.3,2.3,0,0,0,.473-.378" transform="translate(24.021 9.416)" fill="#666"/>
          <path id="Trazado_913819" data-name="Trazado 913819" d="M281.641,109.7q-1.807,1.806-4.046-.435L274.3,105.97q-2.226-2.226-.419-4.032t4.036.416l3.291,3.291q2.24,2.24.43,4.05m-.553-.553q1.111-1.111-.517-2.738L277.164,103a5.058,5.058,0,0,0-.7-.592,2.574,2.574,0,0,0-.684-.337,1.171,1.171,0,0,0-.7-.007,1.584,1.584,0,0,0-.66.418,1.553,1.553,0,0,0-.416.658,1.19,1.19,0,0,0,0,.695,2.465,2.465,0,0,0,.333.686,5.046,5.046,0,0,0,.595.7l3.405,3.405q1.627,1.627,2.739.516" transform="translate(24.395 9.034)" fill="#666"/>
          <rect id="Rectángulo_403333" data-name="Rectángulo 403333" width="2.819" height="0.763" transform="matrix(0.707, -0.707, 0.707, 0.707, 305.317, 112.609)" fill="#666"/>
          <path id="Trazado_913820" data-name="Trazado 913820" d="M288.01,103.07l-6.67-6.67a3.714,3.714,0,0,1-.681,1.678l-.553-.552a3.882,3.882,0,0,0,.393-1.02,2.862,2.862,0,0,0,.064-1.148l.553-.552,7.579,7.58Z" transform="translate(25.023 8.469)" fill="#666"/>
          <path id="Trazado_913821" data-name="Trazado 913821" d="M291.682,99.4l-6.67-6.669a3.716,3.716,0,0,1-.681,1.676l-.553-.552a3.884,3.884,0,0,0,.393-1.02,2.858,2.858,0,0,0,.064-1.147l.553-.553,7.579,7.58Z" transform="translate(25.351 8.141)" fill="#666"/>
          <path id="Trazado_913822" data-name="Trazado 913822" d="M295.772,95.563q-1.806,1.806-4.046-.435l-3.291-3.291q-2.227-2.226-.42-4.032t4.037.416l3.29,3.291q2.24,2.24.43,4.05m-.552-.553q1.111-1.111-.517-2.739L291.3,88.866a4.982,4.982,0,0,0-.7-.592,2.568,2.568,0,0,0-.683-.337,1.171,1.171,0,0,0-.7-.007,1.571,1.571,0,0,0-.66.418,1.553,1.553,0,0,0-.416.658,1.181,1.181,0,0,0,0,.695,2.447,2.447,0,0,0,.333.686,5.1,5.1,0,0,0,.594.7l3.405,3.405q1.627,1.627,2.74.516" transform="translate(25.658 7.772)" fill="#666"/>
          <path id="Trazado_913823" data-name="Trazado 913823" d="M295.931,89.023q-1.054,1.054-2.359-.253l-1.918-1.919q-1.3-1.3-.245-2.35t2.353.242l1.918,1.918q1.306,1.307.252,2.362m-.324-.322q.647-.647-.3-1.6l-1.986-1.986a3.006,3.006,0,0,0-.406-.345,1.474,1.474,0,0,0-.4-.2.68.68,0,0,0-.406,0,.924.924,0,0,0-.385.244.907.907,0,0,0-.243.383.7.7,0,0,0,0,.405,1.366,1.366,0,0,0,.195.4,2.824,2.824,0,0,0,.345.409l1.986,1.986q.948.948,1.6.3" transform="translate(25.991 7.507)" fill="#666"/>
          <path id="Trazado_913824" data-name="Trazado 913824" d="M382.17,316.34a.387.387,0,0,1-.386-.387V225.215a.386.386,0,1,1,.771,0v90.738a.387.387,0,0,1-.386.387" transform="translate(34.107 20.085)" fill="#666"/>
          <path id="Trazado_913825" data-name="Trazado 913825" d="M404.979,288.165a2.651,2.651,0,0,1-.814,2.126,3.372,3.372,0,0,1-2.271.7h-.305v-1.115h.251a2.9,2.9,0,0,0,1.635-.409,1.481,1.481,0,0,0,.558-1.3,1.607,1.607,0,0,0-.626-1.379,3.484,3.484,0,0,0-2.032-.461q-2.627,0-2.687,1.886c0,.011,0,.064,0,.16s0,.15,0,.161H397.6v-.306a1.777,1.777,0,0,0-.582-1.462,3.024,3.024,0,0,0-1.84-.439,2.93,2.93,0,0,0-1.646.393,1.487,1.487,0,0,0-.584,1.332,1.671,1.671,0,0,0,.531,1.382,2.7,2.7,0,0,0,1.669.442h.213v1.115h-.291a3.279,3.279,0,0,1-2.256-.711,2.837,2.837,0,0,1-.8-2.229,2.689,2.689,0,0,1,.855-2.166,3.448,3.448,0,0,1,2.314-.729,3.641,3.641,0,0,1,2.027.492,2.1,2.1,0,0,1,.935,1.317,2.247,2.247,0,0,1,1.009-1.294,4.023,4.023,0,0,1,2.2-.515,4.308,4.308,0,0,1,2.657.729,2.679,2.679,0,0,1,.963,2.28" transform="translate(35.021 25.475)" fill="#666"/>
          <path id="Trazado_913826" data-name="Trazado 913826" d="M404.978,281.229q0,2.977-3.558,2.977a5.339,5.339,0,0,1-1.146-.113,3.587,3.587,0,0,1-.829-.276,2.275,2.275,0,0,1-.584-.428,3.115,3.115,0,0,1-.405-.477,4.544,4.544,0,0,1-.289-.523,2.865,2.865,0,0,1-2.972,1.687,3.615,3.615,0,0,1-2.325-.683,3.157,3.157,0,0,1,.011-4.326,3.666,3.666,0,0,1,2.344-.687,2.838,2.838,0,0,1,2.941,1.7q.159-.312.293-.523a2.967,2.967,0,0,1,.405-.482,2.316,2.316,0,0,1,.587-.431,3.631,3.631,0,0,1,.826-.275,5.206,5.206,0,0,1,1.142-.114q3.559,0,3.558,2.978m-7.323,0q-.077-1.719-2.467-1.718-2.245,0-2.244,1.718t2.244,1.718q2.391,0,2.467-1.718m5.757,1.4a1.844,1.844,0,0,0,0-2.8,3.458,3.458,0,0,0-1.989-.459q-2.559,0-2.711,1.856.152,1.863,2.711,1.863a3.442,3.442,0,0,0,1.992-.462" transform="translate(35.021 24.858)" fill="#666"/>
          <rect id="Rectángulo_403334" data-name="Rectángulo 403334" width="0.901" height="3.33" transform="translate(434.288 298.305)" fill="#666"/>
          <path id="Trazado_913827" data-name="Trazado 913827" d="M404.951,269.9a2.571,2.571,0,0,1-.855,2.157,4.108,4.108,0,0,1-2.558.669v-1.146a3.607,3.607,0,0,0,1.863-.389,1.436,1.436,0,0,0,.634-1.329,1.4,1.4,0,0,0-.771-1.393,6.027,6.027,0,0,0-2.459-.37,5.513,5.513,0,0,0-2.452.389,1.409,1.409,0,0,0-.709,1.351,1.864,1.864,0,0,0,1.062,1.643v.962h-6.561v-4.932l1.07.022v3.894l4.391.062a2.335,2.335,0,0,1-.841-1.939,2.137,2.137,0,0,1,1-1.971,5.62,5.62,0,0,1,2.905-.611,6.052,6.052,0,0,1,3.208.686,2.462,2.462,0,0,1,1.076,2.246" transform="translate(35.032 23.85)" fill="#666"/>
          <path id="Trazado_913828" data-name="Trazado 913828" d="M404.951,262.957a2.571,2.571,0,0,1-.855,2.157,4.1,4.1,0,0,1-2.558.669v-1.146a3.607,3.607,0,0,0,1.863-.389,1.435,1.435,0,0,0,.634-1.329,1.4,1.4,0,0,0-.771-1.393,6.028,6.028,0,0,0-2.459-.37,5.512,5.512,0,0,0-2.452.389,1.411,1.411,0,0,0-.709,1.352,1.863,1.863,0,0,0,1.062,1.642v.962h-6.561v-4.932l1.07.023v3.894l4.391.061a2.335,2.335,0,0,1-.841-1.939,2.138,2.138,0,0,1,1-1.971,5.62,5.62,0,0,1,2.905-.61,6.041,6.041,0,0,1,3.208.686,2.46,2.46,0,0,1,1.076,2.245" transform="translate(35.032 23.23)" fill="#666"/>
          <path id="Trazado_913829" data-name="Trazado 913829" d="M404.666,253.73a2.774,2.774,0,0,1-.183,1.061,1.861,1.861,0,0,1-.478.7,2.072,2.072,0,0,1-.773.409,5.056,5.056,0,0,1-.974.2q-.493.049-1.165.049h-2.108a10.481,10.481,0,0,1-1.638-.107,3.247,3.247,0,0,1-1.119-.379,1.6,1.6,0,0,1-.675-.74,2.927,2.927,0,0,1-.21-1.187,3.109,3.109,0,0,1,.137-.978,1.78,1.78,0,0,1,.378-.668,1.709,1.709,0,0,1,.614-.405,3.39,3.39,0,0,1,.791-.2,7.072,7.072,0,0,1,.974-.058h.427v1.061h-.427a3.272,3.272,0,0,0-1.6.275,1.043,1.043,0,0,0-.438.962,1.014,1.014,0,0,0,.552,1.032,5.591,5.591,0,0,0,2.043.252h2.535a4.778,4.778,0,0,0,1.934-.27,1.035,1.035,0,0,0,.541-1.021,1.4,1.4,0,0,0-.092-.541.9.9,0,0,0-.253-.355,1.147,1.147,0,0,0-.442-.21,3.227,3.227,0,0,0-.6-.1q-.315-.023-.8-.023h-.5v-1.061h.442a9.394,9.394,0,0,1,1.032.049,3.772,3.772,0,0,1,.843.2,1.839,1.839,0,0,1,.664.4,1.73,1.73,0,0,1,.409.668,2.93,2.93,0,0,1,.153.993" transform="translate(35.318 22.461)" fill="#666"/>
          <path id="Trazado_913830" data-name="Trazado 913830" d="M404.524,250.716h-9.042V249.64h.916a2.721,2.721,0,0,1-1.076-2.131,1.363,1.363,0,0,1,1.191-1.42,2.787,2.787,0,0,1-1.191-2.23,1.41,1.41,0,0,1,.485-1.1,2.364,2.364,0,0,1,1.584-.431h7.133v1.085h-7.1a1.713,1.713,0,0,0-1.03.229.785.785,0,0,0-.29.656,2.416,2.416,0,0,0,.939,1.7c.154-.01.27-.015.351-.015h7.133v1.07h-7.1a1.683,1.683,0,0,0-1.03.235.811.811,0,0,0-.29.666,2.37,2.37,0,0,0,.939,1.687h7.484Z" transform="translate(35.316 21.648)" fill="#666"/>
          <path id="Trazado_913831" data-name="Trazado 913831" d="M401.619,199.531a.385.385,0,0,1-.361-.249c-.111-.29-.219-.582-.327-.877a.386.386,0,0,1,.725-.264q.158.436.322.866a.388.388,0,0,1-.361.524M400.065,195a.386.386,0,0,1-.369-.272c-.373-1.217-.728-2.472-1.049-3.732a.385.385,0,1,1,.746-.192c.321,1.247.671,2.492,1.041,3.7a.387.387,0,0,1-.255.484.382.382,0,0,1-.114.016m-1.925-7.473a.386.386,0,0,1-.378-.306c-.265-1.248-.511-2.528-.73-3.805a.386.386,0,1,1,.761-.13c.217,1.266.461,2.536.723,3.775a.386.386,0,0,1-.3.458.394.394,0,0,1-.08.009m-1.31-7.608a.387.387,0,0,1-.383-.336c-.17-1.273-.322-2.568-.45-3.849a.387.387,0,0,1,.345-.423.393.393,0,0,1,.423.346c.127,1.271.278,2.558.448,3.822a.386.386,0,0,1-.382.438m-.77-7.684a.387.387,0,0,1-.386-.361q-.129-1.925-.2-3.868a.388.388,0,0,1,.373-.4.4.4,0,0,1,.4.373q.069,1.93.2,3.844a.386.386,0,0,1-.359.411h-.025m-.667-8.1,0-.768q0-1.551.036-3.1a.363.363,0,0,1,.4-.377.386.386,0,0,1,.376.4q-.036,1.544-.036,3.085l0,.763Zm.57-7.333h-.021a.385.385,0,0,1-.365-.405q.1-1.935.259-3.863a.4.4,0,0,1,.417-.353.386.386,0,0,1,.353.417q-.157,1.915-.259,3.839a.385.385,0,0,1-.385.366m.632-7.693-.042,0a.389.389,0,0,1-.342-.427q.216-1.93.488-3.839a.38.38,0,0,1,.437-.328.386.386,0,0,1,.328.436q-.27,1.9-.485,3.816a.386.386,0,0,1-.383.344m1.089-7.638a.353.353,0,0,1-.066-.007.384.384,0,0,1-.314-.446q.333-1.917.724-3.8a.386.386,0,0,1,.756.157q-.389,1.873-.721,3.777a.384.384,0,0,1-.379.32m1.568-7.553a.386.386,0,0,1-.376-.477c.307-1.257.636-2.519.984-3.747a.378.378,0,0,1,.475-.267.384.384,0,0,1,.267.476c-.343,1.22-.671,2.472-.974,3.721a.387.387,0,0,1-.376.294m2.1-7.428a.377.377,0,0,1-.119-.02.386.386,0,0,1-.248-.486c.4-1.237.829-2.47,1.271-3.661a.386.386,0,1,1,.723.269c-.438,1.181-.863,2.4-1.26,3.631a.387.387,0,0,1-.367.267" transform="translate(35.322 10.905)" fill="#666"/>
          <path id="Trazado_913832" data-name="Trazado 913832" d="M224.318,296.87c1.248,5.376,1.292,7.31-.968,11.515l-53.076-11.51c-1.265-3.977,10.716-3.449,22.182-3.94,8.842,3.229,23.036,4.987,31.862,3.935" transform="translate(15.203 26.169)" fill="#7b8d76" fill-rule="evenodd"/>
          <path id="Trazado_913833" data-name="Trazado 913833" d="M224.6,305.434a19.488,19.488,0,0,1-1.247,2.726l-53.076-11.51a1.505,1.505,0,0,1,.065-1.192Z" transform="translate(15.203 26.395)" fill="#5e6c5a" fill-rule="evenodd"/>
        </g>
      </g>
    </g>
  </g>
</svg>
