<svg xmlns="http://www.w3.org/2000/svg" width="85.051" height="88" viewBox="0 0 85.051 88">
  <g id="Grupo_1106329" data-name="Grupo 1106329" transform="translate(-705 -2733.582)">
    <path id="Rectángulo_402981" data-name="Rectángulo 402981" d="M20,0H65A20,20,0,0,1,85,20V86a0,0,0,0,1,0,0H0a0,0,0,0,1,0,0V20A20,20,0,0,1,20,0Z" transform="translate(705.051 2733.582)" fill="#2fad66"/>
    <g id="procesamiento-de-textos" transform="translate(705 2698.837)">
      <g id="Grupo_1100867" data-name="Grupo 1100867" transform="translate(1.245 57.752)">
        <path id="Trazado_911681" data-name="Trazado 911681" d="M114.816,119.453v42.1H44.637v-42.1a2.394,2.394,0,0,1,2.394-2.394h65.391A2.394,2.394,0,0,1,114.816,119.453Z" transform="translate(-38.472 -108.252)" fill="#dcf5f8"/>
        <path id="Trazado_911682" data-name="Trazado 911682" d="M424.6,117.059h-5.641a2.394,2.394,0,0,1,2.394,2.394v42.1H427v-42.1A2.394,2.394,0,0,0,424.6,117.059Z" transform="translate(-350.653 -108.252)" fill="#c8effe"/>
        <path id="Trazado_911683" data-name="Trazado 911683" d="M71.637,117.306V66.324a2.317,2.317,0,0,1,2.317-2.317h56.581a2.317,2.317,0,0,1,2.317,2.317v50.982H71.637Z" transform="translate(-60.989 -64.007)" fill="#fff9e2"/>
        <path id="Trazado_911684" data-name="Trazado 911684" d="M398.039,64.008h-5.647a2.317,2.317,0,0,1,2.317,2.317v50.982h5.647V66.325A2.317,2.317,0,0,0,398.039,64.008Z" transform="translate(-328.494 -64.008)" fill="#fff5c6"/>
        <path id="Trazado_911685" data-name="Trazado 911685" d="M98.637,116.748V92.977a1.969,1.969,0,0,1,1.969-1.969h24.952a1.969,1.969,0,0,1,1.969,1.969v23.771a1.969,1.969,0,0,1-1.969,1.969H100.606A1.968,1.968,0,0,1,98.637,116.748Z" transform="translate(-83.507 -86.525)" fill="#fee97d"/>
        <path id="Trazado_911686" data-name="Trazado 911686" d="M232.429,91.008h-5.647a1.969,1.969,0,0,1,1.969,1.969v23.771a1.969,1.969,0,0,1-1.969,1.969h5.647a1.969,1.969,0,0,0,1.969-1.969V92.977A1.969,1.969,0,0,0,232.429,91.008Z" transform="translate(-190.378 -86.525)" fill="#fcdb54"/>
        <path id="Trazado_911687" data-name="Trazado 911687" d="M10.249,385.053H87.261A2.749,2.749,0,0,1,90.01,387.8h0a7.7,7.7,0,0,1-7.7,7.7H15.2a7.7,7.7,0,0,1-7.7-7.7h0A2.749,2.749,0,0,1,10.249,385.053Z" transform="translate(-7.5 -331.754)" fill="#8d9ca8"/>
        <path id="Trazado_911688" data-name="Trazado 911688" d="M434.7,385.053h-5.647A2.749,2.749,0,0,1,431.8,387.8h0a7.7,7.7,0,0,1-7.7,7.7h5.647a7.7,7.7,0,0,0,7.7-7.7h0A2.749,2.749,0,0,0,434.7,385.053Z" transform="translate(-354.941 -331.754)" fill="#7a8c98"/>
        <path id="Trazado_911689" data-name="Trazado 911689" d="M234.831,390.278h-5.862a1.866,1.866,0,0,1-1.866-1.866v-3.358H236.7v3.358A1.866,1.866,0,0,1,234.831,390.278Z" transform="translate(-190.645 -331.755)" fill="#9facba"/>
      </g>
      <g id="Grupo_1100870" data-name="Grupo 1100870" transform="translate(0 56.507)">
        <path id="Trazado_911690" data-name="Trazado 911690" d="M108.563,156.541H38.385A1.245,1.245,0,0,1,37.14,155.3V113.2a3.643,3.643,0,0,1,3.639-3.639h2.088a1.245,1.245,0,1,1,0,2.49H40.779A1.15,1.15,0,0,0,39.63,113.2v40.851h67.688V113.2a1.15,1.15,0,0,0-1.149-1.149h-2.088a1.245,1.245,0,0,1,0-2.49h2.088a3.643,3.643,0,0,1,3.639,3.639v42.1A1.245,1.245,0,0,1,108.563,156.541Z" transform="translate(-30.974 -100.752)"/>
        <path id="Trazado_911691" data-name="Trazado 911691" d="M126.6,112.3H65.382a1.245,1.245,0,0,1-1.245-1.245V60.069A3.566,3.566,0,0,1,67.7,56.507H124.28a3.566,3.566,0,0,1,3.562,3.562v50.982A1.245,1.245,0,0,1,126.6,112.3Zm-59.969-2.49h58.724V60.069A1.073,1.073,0,0,0,124.28,59H67.7a1.073,1.073,0,0,0-1.072,1.072Z" transform="translate(-53.489 -56.507)"/>
        <g id="Grupo_1100868" data-name="Grupo 1100868" transform="translate(15.13 4.483)">
          <path id="Línea_596" data-name="Línea 596" d="M-3.491-5.01H-6.255A1.245,1.245,0,0,1-7.5-6.255,1.245,1.245,0,0,1-6.255-7.5h2.764A1.245,1.245,0,0,1-2.246-6.255,1.245,1.245,0,0,1-3.491-5.01Z" transform="translate(56.985 7.5)"/>
          <path id="Línea_597" data-name="Línea 597" d="M9.063-5.01H-6.255A1.245,1.245,0,0,1-7.5-6.255,1.245,1.245,0,0,1-6.255-7.5H9.063a1.245,1.245,0,0,1,1.245,1.245A1.245,1.245,0,0,1,9.063-5.01Z" transform="translate(44.431 13.042)"/>
          <path id="Línea_598" data-name="Línea 598" d="M9.063-5.01H-6.255A1.245,1.245,0,0,1-7.5-6.255,1.245,1.245,0,0,1-6.255-7.5H9.063a1.245,1.245,0,0,1,1.245,1.245A1.245,1.245,0,0,1,9.063-5.01Z" transform="translate(44.431 18.584)"/>
          <path id="Línea_599" data-name="Línea 599" d="M9.063-5.01H-6.255A1.245,1.245,0,0,1-7.5-6.255,1.245,1.245,0,0,1-6.255-7.5H9.063a1.245,1.245,0,0,1,1.245,1.245A1.245,1.245,0,0,1,9.063-5.01Z" transform="translate(44.431 24.125)"/>
          <path id="Línea_600" data-name="Línea 600" d="M9.063-5.01H-6.255A1.245,1.245,0,0,1-7.5-6.255,1.245,1.245,0,0,1-6.255-7.5H9.063a1.245,1.245,0,0,1,1.245,1.245A1.245,1.245,0,0,1,9.063-5.01Z" transform="translate(44.431 29.667)"/>
          <path id="Línea_601" data-name="Línea 601" d="M9.063-5.01H-6.255A1.245,1.245,0,0,1-7.5-6.255,1.245,1.245,0,0,1-6.255-7.5H9.063a1.245,1.245,0,0,1,1.245,1.245A1.245,1.245,0,0,1,9.063-5.01Z" transform="translate(44.431 35.209)"/>
          <path id="Línea_602" data-name="Línea 602" d="M45.995-5.01H-6.255A1.245,1.245,0,0,1-7.5-6.255,1.245,1.245,0,0,1-6.255-7.5H45.995A1.245,1.245,0,0,1,47.24-6.255,1.245,1.245,0,0,1,45.995-5.01Z" transform="translate(7.5 40.75)"/>
          <path id="Línea_603" data-name="Línea 603" d="M45.995-5.01H-6.255A1.245,1.245,0,0,1-7.5-6.255,1.245,1.245,0,0,1-6.255-7.5H45.995A1.245,1.245,0,0,1,47.24-6.255,1.245,1.245,0,0,1,45.995-5.01Z" transform="translate(7.5 46.292)"/>
          <path id="Línea_604" data-name="Línea 604" d="M45.995-5.01H-6.255A1.245,1.245,0,0,1-7.5-6.255,1.245,1.245,0,0,1-6.255-7.5H45.995A1.245,1.245,0,0,1,47.24-6.255,1.245,1.245,0,0,1,45.995-5.01Z" transform="translate(7.5 51.834)"/>
        </g>
        <path id="Trazado_911692" data-name="Trazado 911692" d="M119.3,113.707H94.351a3.217,3.217,0,0,1-3.214-3.214V86.722a3.217,3.217,0,0,1,3.214-3.214h9.219a1.245,1.245,0,0,1,0,2.49H94.351a.724.724,0,0,0-.723.723v23.771a.724.724,0,0,0,.723.723H119.3a.724.724,0,0,0,.724-.723V86.722A.724.724,0,0,0,119.3,86H109.41a1.245,1.245,0,1,1,0-2.49H119.3a3.217,3.217,0,0,1,3.214,3.214v23.771A3.217,3.217,0,0,1,119.3,113.707Z" transform="translate(-76.007 -79.025)"/>
        <path id="Trazado_911693" data-name="Trazado 911693" d="M76.055,390.492h-56a1.245,1.245,0,1,1,0-2.49h56a6.462,6.462,0,0,0,6.455-6.455,1.505,1.505,0,0,0-1.5-1.5H3.994a1.505,1.505,0,0,0-1.5,1.5A6.462,6.462,0,0,0,8.945,388h5.286a1.245,1.245,0,0,1,0,2.49H8.945A8.955,8.955,0,0,1,0,381.547a4,4,0,0,1,3.994-3.994H81.006A4,4,0,0,1,85,381.547,8.955,8.955,0,0,1,76.055,390.492Z" transform="translate(0 -324.254)"/>
        <path id="Trazado_911694" data-name="Trazado 911694" d="M228.576,385.269h-5.862a3.115,3.115,0,0,1-3.111-3.112V378.8a1.245,1.245,0,0,1,1.245-1.245h9.595a1.245,1.245,0,0,1,1.245,1.245v3.358a3.111,3.111,0,0,1-3.111,3.112Zm-6.483-5.224v2.113a.622.622,0,0,0,.621.621h5.862a.621.621,0,0,0,.621-.621v-2.113Z" transform="translate(-183.145 -324.255)"/>
        <g id="Grupo_1100869" data-name="Grupo 1100869" transform="translate(24.033 10.693)">
          <path id="Línea_605" data-name="Línea 605" d="M4.2-5.01H-6.255A1.245,1.245,0,0,1-7.5-6.255,1.245,1.245,0,0,1-6.255-7.5H4.2A1.245,1.245,0,0,1,5.442-6.255,1.245,1.245,0,0,1,4.2-5.01Z" transform="translate(7.5 7.5)"/>
          <path id="Línea_606" data-name="Línea 606" d="M-6.255,9.674A1.245,1.245,0,0,1-7.5,8.429V-6.255A1.245,1.245,0,0,1-6.255-7.5,1.245,1.245,0,0,1-5.01-6.255V8.429A1.245,1.245,0,0,1-6.255,9.674Z" transform="translate(12.705 8.104)"/>
        </g>
      </g>
    </g>
  </g>
</svg>
